<?xml version="1.0" encoding="UTF-8" standalone="yes"?>
<!DOCTYPE svg PUBLIC "-//W3C//DTD SVG 1.0//EN" "http://www.w3.org/TR/2001/REC-SVG-20010904/DTD/svg10.dtd">
<svg height="2000" width="2000" xmlns="http://www.w3.org/2000/svg" xmlns:svg="http://www.w3.org/2000/svg" xmlns:xlink="http://www.w3.org/1999/xlink">
   <marker id="endArrow" markerHeight="8" markerUnits="strokeWidth" markerWidth="10" orient="auto" refX="1" refY="5" viewBox="0 0 200 200">
      <polyline fill="darkblue" points="0,0 10,5 0,10 1,5" />
   </marker>
   <circle cx="1000" cy="1000" r="1" style="stroke:black; fill: red" />
   <circle cx="1000" cy="1000" r="800" style="stroke:black; fill: none" />
   <path d="M 1086.06  880.612  1086.97  880.665  1087.07  880.667  1087.93  880.682  1088.22  880.666  1088.74  880.636  1089.01  880.63  1089.72  880.613  1090.97  880.722  1092  880.801  1092.9  881.01  1094.15  881.296  1094.77  881.536  1096.2  882.083  1096.59  882.3  1098.1  883.146  1099.69  884.372  1099.81  884.464  1101.28  885.994  1101.29  886.008  1101.3  886.015  1101.57  886.374  1101.92  886.848  1101.93  886.857  1102.49  887.728  1102.5  887.75  1102.98  888.65  1103  888.683  1103.02  888.732  1103.43  889.651  1103.5  889.863  1105.18  894.705  1106.39  899.129  1106.76  900.521  1107.59  904.835  1107.87  906.34  1108.39  910.649  1108.56  912.164  1108.83  916.558  1108.91  917.99  1108.93  919.355  1109  920.669  1109.05  923.819  1108.75  933.328  1108.72  934.117  1108.69  934.393  1108.55  935.267  1108.28  937.259  1107.74  939.253  1107.42  940.398  1106.6  942.286  1106.11  943.387  1104.46  945.884  1104.29  946.151  1100.86  951.236  1100.81  951.304  1100.46  951.773  1096.56  957.823  1096.41  958.067  1094.87  960.622  1094.65  961.11  1094.5  961.394  1094.27  962.052  1094.21  962.217  1094.09  962.814  1094.04  963.054  1094.02  963.354  1094  963.87  1093.97  964.882  1093.88  967.28  1093.55  969.557  1093.19  971.806  1092.75  973.55  1092  976.321  1091.66  977.417  1090.55  980.83  1090.44  981.221  1089.76  983.384  1089.23  985.034  1089.12  985.339  1089.06  985.541  1088.48  987.595  1088.37  988.002  1087.93  989.853  1087.8  990.441  1087.48  992.114  1087.35  992.854  1087.12  994.377  1086.9  997.041  1086.73  998.91  1086.82  1003.29  1086.82  1003.45  1086.83  1003.6  1087.22  1008  1087.24  1008.11  1088  1012.56  1088.55  1014.51  1089.23  1017.13  1090.75  1022.45  1091.78  1026.27  1092.11  1028.8  1092.39  1030.83  1092.39  1032.74  1092.34  1034.77  1092.35  1035.02  1092.34  1035.58  1092.4  1035.98  1092.46  1036.4  1092.6  1036.87  1092.7  1037.2  1092.99  1037.84  1093.04  1037.97  1096.02  1043.12  1096.56  1044.05  1100.7  1050.47  1101.01  1050.94  1101.21  1051.21  1101.42  1051.51  1103.79  1054.96  1103.92  1055.13  1104.08  1055.36  1104.66  1056.33  1105.2  1057.3  1105.45  1057.76  1105.91  1058.73  1106.35  1059.76  1106.73  1060.74  1107.03  1061.73  1107.33  1062.87  1107.56  1063.87  1107.77  1065.44  1107.95  1067.08  1108.08  1072.65  1108.18  1077.17  1107.96  1082.62  1107.77  1087.53  1107.48  1090.67  1107.24  1092.71  1106.63  1097.25  1106.54  1097.89  1105.67  1102.82  1105.62  1103.08  1105.56  1103.41  1105.54  1103.5  1104.97  1105.93  1104.97  1105.94  1104.09  1108.78  1104.05  1108.89  1103.37  1110.31  1103.34  1110.37  1102.65  1111.54  1102.5  1111.78  1102.49  1111.8  1101.53  1113.11  1101.43  1113.22  1100.43  1114.36  1100.21  1114.57  1099.22  1115.5  1098.81  1115.82  1097.91  1116.54  1097.15  1117.04  1096.81  1117.23  1096.46  1117.46  1096.01  1117.7  1094.96  1118.26  1094.33  1118.53  1093.38  1118.93  1092.54  1119.21  1091.75  1119.48  1090.66  1119.74  1090.06  1119.88  1088.7  1120.09  1088.34  1120.15  1086.66  1120.27  1086.6  1120.28  1086.54  1120.28  1086.22  1120.27  1086.07  1120.27  1084.93  1120.25  1084.79  1120.26  1082.81  1120.15  1082.8  1120.15  1082.8  1120.15  1082.78  1120.15  1082.71  1120.14  1082.71  1118.08  1082.71  1115.68  1083.74  1115.67  1085.59  1115.67  1085.59  1114.07  1085.59  1111.27  1085.59  1083.63  1085.59  1053.2  1085.59  1039.76  1082.71  1039.76  1082.71  1039.62  1082.71  1038.33  1081.32  1038.27  1080.66  1038.25  1080.48  1038.24  1080.23  1038.23  1079.28  1038.19  1079.07  1038.19  1078.87  1038.18  1078.81  1038.18  1078.6  1038.17  1078.56  1038.17  1077.16  1038.11  1076.62  1038.09  1076.5  1038.08  1076.39  1038.07  1076.36  1038.07  1076.36  1038.07  1076.15  1038.03  1076.12  1038.02  1075.91  1037.96  1075.91  1037.96  1075.89  1037.95  1075.89  1037.95  1075.68  1037.87  1075.66  1037.86  1075.47  1037.76  1075.46  1037.76  1075.27  1037.64  1075.26  1037.63  1075.24  1037.62  1075.07  1037.48  1075.06  1037.48  1075.05  1037.47  1074.89  1037.32  1074.88  1037.31  1074.87  1037.3  1074.72  1037.13  1074.72  1037.13  1074.71  1037.12  1074.58  1036.94  1074.57  1036.93  1074.57  1036.92  1074.45  1036.72  1074.45  1036.71  1074.35  1036.51  1074.35  1036.49  1074.34  1036.48  1074.27  1036.27  1074.26  1036.26  1074.26  1036.25  1074.21  1036.03  1074.21  1036.03  1074.2  1036.01  1074.2  1036.01  1074.17  1035.78  1074.15  1035.73  1074.17  1035.54  1074.19  1034.77  1074.19  1034.7  1074.18  1033.65  1074.17  1033.3  1074.16  1031.94  1074.15  1030.77  1074  1001.05  1074  1000.81  1073.99  1000.42  1073.99  1000.18  1073.99  1000.03  1073.99  999.522  1073.99  999.486  1074  999.131  1074.11  974.184  1074.15  964.242  1074.1  963.995  1074.1  963.992  1074.13  963.769  1074.14  963.752  1074.14  963.744  1074.19  963.525  1074.2  963.513  1074.2  963.507  1074.27  963.294  1074.28  963.279  1074.28  963.274  1074.37  963.07  1074.38  963.059  1074.38  963.046  1074.5  962.852  1074.5  962.847  1074.51  962.839  1074.64  962.657  1074.65  962.641  1074.8  962.473  1074.81  962.463  1074.81  962.455  1074.98  962.302  1074.99  962.291  1074.99  962.287  1075.17  962.151  1075.18  962.143  1075.37  962.025  1075.38  962.014  1075.4  962.008  1075.59  961.908  1075.61  961.9  1075.61  961.897  1075.62  961.896  1075.82  961.815  1075.84  961.811  1075.84  961.809  1076.05  961.749  1076.08  961.742  1076.08  961.742  1076.29  961.702  1076.32  961.699  1076.43  961.687  1076.55  961.677  1077.27  961.65  1079.16  961.577  1080.21  961.537  1080.39  961.53  1082.71  961.441  1082.71  958.825  1085.59  958.825  1085.59  953.512  1085.59  939.373  1085.59  886.662  1085.59  883.733  1082.71  883.723  1082.71  883.556  1082.71  880.517  Z" style="fill: none; stroke: black; stroke-width: 0.200000; fill-type: evenodd"  fill-opacity="1.000000" />
   <path d="M 914.669  940.626  914.669  940.74  912.409  941.195  912.409  950.451  912.409  953.809  912.409  956.188  912.409  958.825  914.669  958.825  914.669  959.355  914.669  967.128  914.669  1039.76  912.409  1039.76  912.409  1086.14  912.409  1096.1  913.079  1096.24  914.192  1096.46  914.659  1096.46  914.669  1096.46  914.669  1097.06  914.669  1099.06  914.669  1101.18  914.669  1101.74  914.426  1101.69  914.128  1101.61  912.983  1101.25  909.867  1100.24  908.804  1099.72  905.838  1098.24  905.357  1097.9  902.187  1095.67  902.169  1095.65  902.035  1095.52  899.448  1092.97  899.127  1092.65  898.317  1091.59  896.554  1089.22  895.413  1087.04  894.934  1086.18  894.609  1085.49  894.254  1084.42  893.302  1081.56  893.224  1081.06  893.134  1080.48  892.693  1077.69  892.667  1077.53  892.646  1077.26  892.613  1075.99  892.546  1075.18  892.406  1069.98  892.273  1065.37  892.326  1064.18  892.33  1064.14  892.365  1063.03  892.447  1060.78  892.499  1060.47  892.995  1057.51  893.212  1056.73  893.879  1054.31  894.663  1052.23  895.08  1051.18  896.153  1048.73  896.322  1048.38  896.903  1047.09  898.625  1042.8  899.171  1041.52  899.403  1040.9  901.261  1035.95  901.707  1034.69  903.037  1030.41  903.759  1027.12  904.238  1024.88  904.594  1022.15  904.927  1019.39  905.048  1017.11  905.177  1013.91  904.848  1006.07  904.759  1003  903.625  994.046  903.406  992.141  902.454  987.474  902.309  986.73  901.058  981.997  900.888  981.335  900.399  979.866  900.098  978.984  899.433  976.863  899.188  976.113  898.49  973.795  898.16  972.393  897.756  970.666  897.51  969.124  897.245  967.488  897.037  964.264  897.037  964.254  897.036  964.239  897.03  964.153  896.636  958.333  896.634  958.184  896.644  956.904  896.7  956.06  896.74  955.313  896.853  954.56  896.971  953.704  897.124  953.052  897.339  952.085  897.512  951.544  897.844  950.467  898.018  950.042  898.487  948.861  898.64  948.554  899.264  947.276  899.376  947.09  900.176  945.725  900.225  945.655  900.816  944.798  901.196  944.266  901.233  944.214  902.29  942.939  902.437  942.757  903.476  941.673  903.756  941.373  904.749  940.475  905.182  940.075  906.105  939.352  906.707  938.871  907.539  938.312  908.322  937.774  909.043  937.362  910.048  936.804  911.728  935.99  911.787  935.962  914.21  934.859  914.669  934.657  Z" style="fill: none; stroke: black; stroke-width: 0.200000; fill-type: evenodd"  fill-opacity="1.000000" />
   <line x1="1085.883026" y1="1120.270004" x2="1106.172409" y2="1099.980621" style="stroke: red; stroke-width: 0.200000"/>
   <line x1="1106.483231" y1="1098.231125" x2="1084.475555" y2="1120.238800" style="stroke: red; stroke-width: 0.200000"/>
   <line x1="1105.861664" y1="1101.730118" x2="1087.370300" y2="1120.221481" style="stroke: red; stroke-width: 0.200000"/>
   <line x1="1083.109436" y1="1120.166092" x2="1106.724930" y2="1096.550674" style="stroke: red; stroke-width: 0.200000"/>
   <line x1="1088.979340" y1="1120.051117" x2="1105.546570" y2="1103.483887" style="stroke: red; stroke-width: 0.200000"/>
   <line x1="1105.103302" y1="1105.365906" x2="1090.753708" y2="1119.715500" style="stroke: red; stroke-width: 0.200000"/>
   <line x1="1092.772522" y1="1119.135361" x2="1104.520645" y2="1107.387238" style="stroke: red; stroke-width: 0.200000"/>
   <line x1="1106.947784" y1="1094.889145" x2="1082.713623" y2="1119.123306" style="stroke: red; stroke-width: 0.200000"/>
   <line x1="1103.679810" y1="1109.666824" x2="1095.238342" y2="1118.108292" style="stroke: red; stroke-width: 0.200000"/>
   <line x1="1082.713547" y1="1117.684555" x2="1084.462967" y2="1115.935211" style="stroke: red; stroke-width: 0.200000"/>
   <line x1="1083.018951" y1="1115.940475" x2="1082.713547" y2="1116.245880" style="stroke: red; stroke-width: 0.200000"/>
   <line x1="1100.404282" y1="1114.381104" x2="1100.440903" y2="1114.344482" style="stroke: red; stroke-width: 0.200000"/>
   <line x1="1083.283386" y1="1115.676041" x2="1083.151245" y2="1115.808182" style="stroke: red; stroke-width: 0.200000"/>
   <line x1="1084.595261" y1="1115.802841" x2="1084.727402" y2="1115.670776" style="stroke: red; stroke-width: 0.200000"/>
   <line x1="1085.594330" y1="1114.803848" x2="1107.170563" y2="1093.227539" style="stroke: red; stroke-width: 0.200000"/>
   <line x1="1107.369843" y1="1091.589584" x2="1085.594330" y2="1113.365097" style="stroke: red; stroke-width: 0.200000"/>
   <line x1="1085.594330" y1="1111.926422" x2="1107.542114" y2="1089.978638" style="stroke: red; stroke-width: 0.200000"/>
   <line x1="1107.693100" y1="1088.388901" x2="1085.594330" y2="1110.487671" style="stroke: red; stroke-width: 0.200000"/>
   <line x1="1085.594330" y1="1109.048996" x2="1107.801285" y2="1086.841965" style="stroke: red; stroke-width: 0.200000"/>
   <line x1="1107.176666" y1="1086.027832" x2="1085.594330" y2="1107.610245" style="stroke: red; stroke-width: 0.200000"/>
   <line x1="1085.594330" y1="1106.171494" x2="1105.737991" y2="1086.027832" style="stroke: red; stroke-width: 0.200000"/>
   <line x1="1104.299240" y1="1086.027832" x2="1085.594330" y2="1104.732819" style="stroke: red; stroke-width: 0.200000"/>
   <line x1="1085.594330" y1="1103.294067" x2="1102.860489" y2="1086.027832" style="stroke: red; stroke-width: 0.200000"/>
   <line x1="1101.421814" y1="1086.027832" x2="1085.594330" y2="1101.855392" style="stroke: red; stroke-width: 0.200000"/>
   <line x1="1085.594330" y1="1100.416641" x2="1099.983063" y2="1086.027832" style="stroke: red; stroke-width: 0.200000"/>
   <line x1="1098.544388" y1="1086.027832" x2="1085.594330" y2="1098.977890" style="stroke: red; stroke-width: 0.200000"/>
   <line x1="1085.594330" y1="1097.539215" x2="1097.105637" y2="1086.027832" style="stroke: red; stroke-width: 0.200000"/>
   <line x1="1095.666885" y1="1086.027832" x2="1085.594330" y2="1096.100464" style="stroke: red; stroke-width: 0.200000"/>
   <line x1="1085.594330" y1="1094.661713" x2="1094.228210" y2="1086.027832" style="stroke: red; stroke-width: 0.200000"/>
   <line x1="1092.789459" y1="1086.027832" x2="1085.594330" y2="1093.223038" style="stroke: red; stroke-width: 0.200000"/>
   <line x1="1085.594330" y1="1091.784286" x2="1091.350708" y2="1086.027832" style="stroke: red; stroke-width: 0.200000"/>
   <line x1="1089.912033" y1="1086.027832" x2="1085.594330" y2="1090.345612" style="stroke: red; stroke-width: 0.200000"/>
   <line x1="1085.594330" y1="1088.906860" x2="1088.473282" y2="1086.027832" style="stroke: red; stroke-width: 0.200000"/>
   <line x1="1087.034607" y1="1086.027832" x2="1085.594330" y2="1087.468109" style="stroke: red; stroke-width: 0.200000"/>
   <line x1="1085.594330" y1="1086.029434" x2="1085.595856" y2="1086.027832" style="stroke: red; stroke-width: 0.200000"/>
   <line x1="1108.019638" y1="1069.907150" x2="1091.899185" y2="1086.027679" style="stroke: red; stroke-width: 0.200000"/>
   <line x1="1093.347549" y1="1086.027679" x2="1108.053207" y2="1071.322021" style="stroke: red; stroke-width: 0.200000"/>
   <line x1="1108.086548" y1="1072.737045" x2="1094.795914" y2="1086.027679" style="stroke: red; stroke-width: 0.200000"/>
   <line x1="1096.244278" y1="1086.027679" x2="1108.116989" y2="1074.154968" style="stroke: red; stroke-width: 0.200000"/>
   <line x1="1108.147507" y1="1075.572891" x2="1097.692642" y2="1086.027679" style="stroke: red; stroke-width: 0.200000"/>
   <line x1="1099.141083" y1="1086.027679" x2="1108.177948" y2="1076.990814" style="stroke: red; stroke-width: 0.200000"/>
   <line x1="1108.129272" y1="1078.487778" x2="1100.589447" y2="1086.027679" style="stroke: red; stroke-width: 0.200000"/>
   <line x1="1102.037811" y1="1086.027679" x2="1108.069077" y2="1079.996414" style="stroke: red; stroke-width: 0.200000"/>
   <line x1="1108.008881" y1="1081.504974" x2="1103.486176" y2="1086.027679" style="stroke: red; stroke-width: 0.200000"/>
   <line x1="1104.934616" y1="1086.027679" x2="1107.949142" y2="1083.013077" style="stroke: red; stroke-width: 0.200000"/>
   <line x1="1107.891006" y1="1084.519653" x2="1106.382980" y2="1086.027679" style="stroke: red; stroke-width: 0.200000"/>
   <line x1="1107.831345" y1="1086.027679" x2="1107.832794" y2="1086.026154" style="stroke: red; stroke-width: 0.200000"/>
   <line x1="1107.952271" y1="1067.077789" x2="1089.002380" y2="1086.027679" style="stroke: red; stroke-width: 0.200000"/>
   <line x1="1107.642593" y1="1064.490662" x2="1086.105652" y2="1086.027679" style="stroke: red; stroke-width: 0.200000"/>
   <line x1="1087.554016" y1="1086.027679" x2="1107.805634" y2="1065.775986" style="stroke: red; stroke-width: 0.200000"/>
   <line x1="1090.450745" y1="1086.027679" x2="1107.986145" y2="1068.492355" style="stroke: red; stroke-width: 0.200000"/>
   <line x1="1085.594330" y1="1085.090637" x2="1107.420807" y2="1063.264084" style="stroke: red; stroke-width: 0.200000"/>
   <line x1="1107.130051" y1="1062.106476" x2="1085.594330" y2="1083.642197" style="stroke: red; stroke-width: 0.200000"/>
   <line x1="1085.594330" y1="1082.193832" x2="1106.802368" y2="1060.985794" style="stroke: red; stroke-width: 0.200000"/>
   <line x1="1106.411743" y1="1059.927979" x2="1085.594330" y2="1080.745468" style="stroke: red; stroke-width: 0.200000"/>
   <line x1="1085.594330" y1="1079.297104" x2="1105.987396" y2="1058.903961" style="stroke: red; stroke-width: 0.200000"/>
   <line x1="1105.529099" y1="1057.913895" x2="1085.594330" y2="1077.848740" style="stroke: red; stroke-width: 0.200000"/>
   <line x1="1085.594330" y1="1076.400299" x2="1105.020065" y2="1056.974564" style="stroke: red; stroke-width: 0.200000"/>
   <line x1="1104.491882" y1="1056.054382" x2="1085.594254" y2="1074.951935" style="stroke: red; stroke-width: 0.200000"/>
   <line x1="1085.594254" y1="1073.503571" x2="1103.936081" y2="1055.161819" style="stroke: red; stroke-width: 0.200000"/>
   <line x1="1103.343506" y1="1054.305954" x2="1085.594254" y2="1072.055206" style="stroke: red; stroke-width: 0.200000"/>
   <line x1="1085.594254" y1="1070.606842" x2="1102.752380" y2="1053.448715" style="stroke: red; stroke-width: 0.200000"/>
   <line x1="1102.161331" y1="1052.591400" x2="1085.594254" y2="1069.158478" style="stroke: red; stroke-width: 0.200000"/>
   <line x1="1085.594254" y1="1067.710037" x2="1101.528168" y2="1051.776123" style="stroke: red; stroke-width: 0.200000"/>
   <line x1="1100.079803" y1="1051.776123" x2="1085.594254" y2="1066.261673" style="stroke: red; stroke-width: 0.200000"/>
   <line x1="1085.594254" y1="1064.813309" x2="1098.631439" y2="1051.776123" style="stroke: red; stroke-width: 0.200000"/>
   <line x1="1097.183075" y1="1051.776123" x2="1085.594254" y2="1063.364944" style="stroke: red; stroke-width: 0.200000"/>
   <line x1="1085.594254" y1="1061.916580" x2="1095.734634" y2="1051.776123" style="stroke: red; stroke-width: 0.200000"/>
   <line x1="1094.286270" y1="1051.776123" x2="1085.594254" y2="1060.468140" style="stroke: red; stroke-width: 0.200000"/>
   <line x1="1085.594254" y1="1059.019775" x2="1092.837906" y2="1051.776123" style="stroke: red; stroke-width: 0.200000"/>
   <line x1="1091.389542" y1="1051.776123" x2="1085.594254" y2="1057.571411" style="stroke: red; stroke-width: 0.200000"/>
   <line x1="1085.594254" y1="1056.123047" x2="1089.941177" y2="1051.776123" style="stroke: red; stroke-width: 0.200000"/>
   <line x1="1088.492737" y1="1051.776123" x2="1085.594254" y2="1054.674683" style="stroke: red; stroke-width: 0.200000"/>
   <line x1="1085.594254" y1="1053.226242" x2="1087.044373" y2="1051.776123" style="stroke: red; stroke-width: 0.200000"/>
   <line x1="1085.596008" y1="1051.776123" x2="1085.594254" y2="1051.777878" style="stroke: red; stroke-width: 0.200000"/>
   <line x1="1095.447311" y1="1042.125244" x2="1085.796661" y2="1051.775970" style="stroke: red; stroke-width: 0.200000"/>
   <line x1="1087.233124" y1="1051.775970" x2="1095.973511" y2="1043.035507" style="stroke: red; stroke-width: 0.200000"/>
   <line x1="1096.501312" y1="1043.944168" x2="1088.669586" y2="1051.775970" style="stroke: red; stroke-width: 0.200000"/>
   <line x1="1090.105972" y1="1051.775970" x2="1097.060089" y2="1044.821854" style="stroke: red; stroke-width: 0.200000"/>
   <line x1="1097.622833" y1="1045.695572" x2="1091.542435" y2="1051.775970" style="stroke: red; stroke-width: 0.200000"/>
   <line x1="1092.978897" y1="1051.775970" x2="1098.185577" y2="1046.569290" style="stroke: red; stroke-width: 0.200000"/>
   <line x1="1098.748322" y1="1047.443008" x2="1094.415359" y2="1051.775970" style="stroke: red; stroke-width: 0.200000"/>
   <line x1="1095.851822" y1="1051.775970" x2="1099.311066" y2="1048.316727" style="stroke: red; stroke-width: 0.200000"/>
   <line x1="1099.873734" y1="1049.190445" x2="1097.288284" y2="1051.775970" style="stroke: red; stroke-width: 0.200000"/>
   <line x1="1098.724747" y1="1051.775970" x2="1100.436478" y2="1050.064163" style="stroke: red; stroke-width: 0.200000"/>
   <line x1="1101.007080" y1="1050.930023" x2="1100.161209" y2="1051.775970" style="stroke: red; stroke-width: 0.200000"/>
   <line x1="1101.597672" y1="1051.775970" x2="1101.598511" y2="1051.775131" style="stroke: red; stroke-width: 0.200000"/>
   <line x1="1085.594254" y1="1050.541840" x2="1094.921112" y2="1041.215057" style="stroke: red; stroke-width: 0.200000"/>
   <line x1="1094.394913" y1="1040.304794" x2="1085.594254" y2="1049.105377" style="stroke: red; stroke-width: 0.200000"/>
   <line x1="1085.594254" y1="1047.668915" x2="1093.868637" y2="1039.394531" style="stroke: red; stroke-width: 0.200000"/>
   <line x1="1093.342438" y1="1038.484268" x2="1085.594254" y2="1046.232452" style="stroke: red; stroke-width: 0.200000"/>
   <line x1="1085.594254" y1="1044.796066" x2="1092.852325" y2="1037.537994" style="stroke: red; stroke-width: 0.200000"/>
   <line x1="1092.482452" y1="1036.471329" x2="1085.594254" y2="1043.359604" style="stroke: red; stroke-width: 0.200000"/>
   <line x1="1085.594254" y1="1041.923141" x2="1092.345886" y2="1035.171432" style="stroke: red; stroke-width: 0.200000"/>
   <line x1="1092.365036" y1="1033.715820" x2="1085.594254" y2="1040.486679" style="stroke: red; stroke-width: 0.200000"/>
   <line x1="1084.880753" y1="1039.763718" x2="1092.389679" y2="1032.254791" style="stroke: red; stroke-width: 0.200000"/>
   <line x1="1092.390060" y1="1030.817947" x2="1083.444290" y2="1039.763718" style="stroke: red; stroke-width: 0.200000"/>
   <line x1="1082.713547" y1="1039.057922" x2="1092.214355" y2="1029.557190" style="stroke: red; stroke-width: 0.200000"/>
   <line x1="1092.042923" y1="1028.292084" x2="1082.035141" y2="1038.299942" style="stroke: red; stroke-width: 0.200000"/>
   <line x1="1080.651779" y1="1038.246765" x2="1091.877975" y2="1027.020645" style="stroke: red; stroke-width: 0.200000"/>
   <line x1="1091.655426" y1="1025.806732" x2="1079.268494" y2="1038.193665" style="stroke: red; stroke-width: 0.200000"/>
   <line x1="1077.885208" y1="1038.140488" x2="1091.351166" y2="1024.674530" style="stroke: red; stroke-width: 0.200000"/>
   <line x1="1091.046906" y1="1023.542328" x2="1076.506348" y2="1038.082886" style="stroke: red; stroke-width: 0.200000"/>
   <line x1="1075.419540" y1="1037.733231" x2="1090.741959" y2="1022.410812" style="stroke: red; stroke-width: 0.200000"/>
   <line x1="1090.421448" y1="1021.294861" x2="1074.663391" y2="1037.052917" style="stroke: red; stroke-width: 0.200000"/>
   <line x1="1074.215927" y1="1036.063919" x2="1090.100937" y2="1020.178909" style="stroke: red; stroke-width: 0.200000"/>
   <line x1="1089.780426" y1="1019.062958" x2="1074.191971" y2="1034.651413" style="stroke: red; stroke-width: 0.200000"/>
   <line x1="1074.169006" y1="1033.237915" x2="1089.459915" y2="1017.947083" style="stroke: red; stroke-width: 0.200000"/>
   <line x1="1088.446045" y1="1017.524414" x2="1074.155731" y2="1031.814728" style="stroke: red; stroke-width: 0.200000"/>
   <line x1="1074.144058" y1="1030.389938" x2="1087.009583" y2="1017.524414" style="stroke: red; stroke-width: 0.200000"/>
   <line x1="1085.573120" y1="1017.524414" x2="1074.136887" y2="1028.960724" style="stroke: red; stroke-width: 0.200000"/>
   <line x1="1074.129715" y1="1027.531433" x2="1084.136658" y2="1017.524414" style="stroke: red; stroke-width: 0.200000"/>
   <line x1="1082.700195" y1="1017.524414" x2="1074.122543" y2="1026.102142" style="stroke: red; stroke-width: 0.200000"/>
   <line x1="1074.115372" y1="1024.672852" x2="1081.263733" y2="1017.524414" style="stroke: red; stroke-width: 0.200000"/>
   <line x1="1079.827271" y1="1017.524414" x2="1074.108124" y2="1023.243561" style="stroke: red; stroke-width: 0.200000"/>
   <line x1="1074.100952" y1="1021.814270" x2="1078.390808" y2="1017.524414" style="stroke: red; stroke-width: 0.200000"/>
   <line x1="1076.954346" y1="1017.524414" x2="1074.093781" y2="1020.384979" style="stroke: red; stroke-width: 0.200000"/>
   <line x1="1074.086609" y1="1018.955688" x2="1075.517883" y2="1017.524414" style="stroke: red; stroke-width: 0.200000"/>
   <line x1="1074.081497" y1="1017.524414" x2="1074.079437" y2="1017.526398" style="stroke: red; stroke-width: 0.200000"/>
   <line x1="1075.188065" y1="1017.524185" x2="1087.015915" y2="1005.696487" style="stroke: red; stroke-width: 0.200000"/>
   <line x1="1087.132568" y1="1006.994705" x2="1076.603012" y2="1017.524185" style="stroke: red; stroke-width: 0.200000"/>
   <line x1="1078.017883" y1="1017.524185" x2="1087.268829" y2="1008.273315" style="stroke: red; stroke-width: 0.200000"/>
   <line x1="1087.474365" y1="1009.482651" x2="1079.432755" y2="1017.524185" style="stroke: red; stroke-width: 0.200000"/>
   <line x1="1080.847702" y1="1017.524185" x2="1087.679977" y2="1010.691986" style="stroke: red; stroke-width: 0.200000"/>
   <line x1="1087.885513" y1="1011.901245" x2="1082.262573" y2="1017.524185" style="stroke: red; stroke-width: 0.200000"/>
   <line x1="1083.677444" y1="1017.524185" x2="1088.139725" y2="1013.061905" style="stroke: red; stroke-width: 0.200000"/>
   <line x1="1088.452835" y1="1014.163742" x2="1085.092316" y2="1017.524185" style="stroke: red; stroke-width: 0.200000"/>
   <line x1="1086.507263" y1="1017.524185" x2="1088.749771" y2="1015.281677" style="stroke: red; stroke-width: 0.200000"/>
   <line x1="1089.039307" y1="1016.407089" x2="1087.922134" y2="1017.524185" style="stroke: red; stroke-width: 0.200000"/>
   <line x1="1089.337006" y1="1017.524185" x2="1089.338150" y2="1017.523117" style="stroke: red; stroke-width: 0.200000"/>
   <line x1="1086.899185" y1="1004.398193" x2="1074.077911" y2="1017.219543" style="stroke: red; stroke-width: 0.200000"/>
   <line x1="1074.070816" y1="1015.811691" x2="1086.812134" y2="1003.070450" style="stroke: red; stroke-width: 0.200000"/>
   <line x1="1086.784821" y1="1001.682816" x2="1074.063797" y2="1014.403839" style="stroke: red; stroke-width: 0.200000"/>
   <line x1="1074.056702" y1="1012.996063" x2="1086.757507" y2="1000.295181" style="stroke: red; stroke-width: 0.200000"/>
   <line x1="1086.730499" y1="998.907394" x2="1074.049606" y2="1011.588211" style="stroke: red; stroke-width: 0.200000"/>
   <line x1="1074.042587" y1="1010.180359" x2="1086.871567" y2="997.351379" style="stroke: red; stroke-width: 0.200000"/>
   <line x1="1087.003403" y1="995.804672" x2="1074.035492" y2="1008.772583" style="stroke: red; stroke-width: 0.200000"/>
   <line x1="1074.028473" y1="1007.364731" x2="1087.141800" y2="994.251404" style="stroke: red; stroke-width: 0.200000"/>
   <line x1="1087.396240" y1="992.582092" x2="1074.021378" y2="1005.956955" style="stroke: red; stroke-width: 0.200000"/>
   <line x1="1074.014282" y1="1004.549103" x2="1087.722397" y2="990.840988" style="stroke: red; stroke-width: 0.200000"/>
   <line x1="1088.129425" y1="989.019089" x2="1074.007263" y2="1003.141251" style="stroke: red; stroke-width: 0.200000"/>
   <line x1="1074.000168" y1="1001.733475" x2="1088.615265" y2="987.118301" style="stroke: red; stroke-width: 0.200000"/>
   <line x1="1089.200974" y1="985.117798" x2="1073.993149" y2="1000.325546" style="stroke: red; stroke-width: 0.200000"/>
   <line x1="1073.997192" y1="998.906631" x2="1089.631119" y2="983.272705" style="stroke: red; stroke-width: 0.200000"/>
   <line x1="1088.216248" y1="983.272705" x2="1074.003448" y2="997.485504" style="stroke: red; stroke-width: 0.200000"/>
   <line x1="1074.009628" y1="996.064377" x2="1086.801376" y2="983.272705" style="stroke: red; stroke-width: 0.200000"/>
   <line x1="1085.386429" y1="983.272705" x2="1074.015884" y2="994.643250" style="stroke: red; stroke-width: 0.200000"/>
   <line x1="1074.022141" y1="993.222122" x2="1083.971558" y2="983.272705" style="stroke: red; stroke-width: 0.200000"/>
   <line x1="1082.556686" y1="983.272705" x2="1074.028320" y2="991.800995" style="stroke: red; stroke-width: 0.200000"/>
   <line x1="1074.034576" y1="990.379944" x2="1081.141815" y2="983.272705" style="stroke: red; stroke-width: 0.200000"/>
   <line x1="1079.726868" y1="983.272705" x2="1074.040833" y2="988.958740" style="stroke: red; stroke-width: 0.200000"/>
   <line x1="1074.047012" y1="987.537613" x2="1078.311996" y2="983.272705" style="stroke: red; stroke-width: 0.200000"/>
   <line x1="1076.897125" y1="983.272705" x2="1074.053268" y2="986.116562" style="stroke: red; stroke-width: 0.200000"/>
   <line x1="1074.059525" y1="984.695435" x2="1075.482178" y2="983.272705" style="stroke: red; stroke-width: 0.200000"/>
   <line x1="1074.067307" y1="983.272705" x2="1074.065704" y2="983.274307" style="stroke: red; stroke-width: 0.200000"/>
   <line x1="1094.015732" y1="963.387680" x2="1074.130859" y2="983.272476" style="stroke: red; stroke-width: 0.200000"/>
   <line x1="1075.555038" y1="983.272476" x2="1093.966522" y2="964.860992" style="stroke: red; stroke-width: 0.200000"/>
   <line x1="1093.916397" y1="966.335297" x2="1076.979141" y2="983.272476" style="stroke: red; stroke-width: 0.200000"/>
   <line x1="1078.403320" y1="983.272476" x2="1093.795319" y2="967.880554" style="stroke: red; stroke-width: 0.200000"/>
   <line x1="1093.547745" y1="969.552231" x2="1079.827499" y2="983.272476" style="stroke: red; stroke-width: 0.200000"/>
   <line x1="1081.251602" y1="983.272476" x2="1093.281097" y2="971.243057" style="stroke: red; stroke-width: 0.200000"/>
   <line x1="1092.867813" y1="973.080521" x2="1082.675781" y2="983.272476" style="stroke: red; stroke-width: 0.200000"/>
   <line x1="1084.099960" y1="983.272476" x2="1092.349319" y2="975.023117" style="stroke: red; stroke-width: 0.200000"/>
   <line x1="1091.787949" y1="977.008667" x2="1085.524139" y2="983.272476" style="stroke: red; stroke-width: 0.200000"/>
   <line x1="1086.948242" y1="983.272476" x2="1091.112442" y2="979.108353" style="stroke: red; stroke-width: 0.200000"/>
   <line x1="1090.444031" y1="981.200943" x2="1088.372421" y2="983.272476" style="stroke: red; stroke-width: 0.200000"/>
   <line x1="1089.796600" y1="983.272476" x2="1089.798584" y2="983.270416" style="stroke: red; stroke-width: 0.200000"/>
   <line x1="1074.071732" y1="981.907425" x2="1094.451294" y2="961.527939" style="stroke: red; stroke-width: 0.200000"/>
   <line x1="1096.281052" y1="958.274002" x2="1074.077988" y2="980.477066" style="stroke: red; stroke-width: 0.200000"/>
   <line x1="1074.084244" y1="979.046631" x2="1098.840027" y2="954.290924" style="stroke: red; stroke-width: 0.200000"/>
   <line x1="1101.664505" y1="950.042191" x2="1074.090576" y2="977.616196" style="stroke: red; stroke-width: 0.200000"/>
   <line x1="1074.096832" y1="976.185760" x2="1101.261597" y2="949.020996" style="stroke: red; stroke-width: 0.200000"/>
   <line x1="1099.837494" y1="949.020996" x2="1074.103088" y2="974.755325" style="stroke: red; stroke-width: 0.200000"/>
   <line x1="1074.109039" y1="973.325272" x2="1098.413315" y2="949.020996" style="stroke: red; stroke-width: 0.200000"/>
   <line x1="1096.989136" y1="949.020996" x2="1074.114685" y2="971.895370" style="stroke: red; stroke-width: 0.200000"/>
   <line x1="1074.120407" y1="970.465546" x2="1095.564957" y2="949.020996" style="stroke: red; stroke-width: 0.200000"/>
   <line x1="1094.140854" y1="949.020996" x2="1085.594254" y2="957.567596" style="stroke: red; stroke-width: 0.200000"/>
   <line x1="1085.594254" y1="956.143417" x2="1092.716675" y2="949.020996" style="stroke: red; stroke-width: 0.200000"/>
   <line x1="1091.292496" y1="949.020996" x2="1085.594254" y2="954.719238" style="stroke: red; stroke-width: 0.200000"/>
   <line x1="1085.594254" y1="953.295135" x2="1089.868393" y2="949.020996" style="stroke: red; stroke-width: 0.200000"/>
   <line x1="1088.444214" y1="949.020996" x2="1085.594254" y2="951.870956" style="stroke: red; stroke-width: 0.200000"/>
   <line x1="1085.594254" y1="950.446777" x2="1087.020035" y2="949.020996" style="stroke: red; stroke-width: 0.200000"/>
   <line x1="1085.595932" y1="949.020996" x2="1085.594254" y2="949.022598" style="stroke: red; stroke-width: 0.200000"/>
   <line x1="1074.126129" y1="969.035721" x2="1081.681595" y2="961.480179" style="stroke: red; stroke-width: 0.200000"/>
   <line x1="1080.200577" y1="961.537094" x2="1074.131851" y2="967.605820" style="stroke: red; stroke-width: 0.200000"/>
   <line x1="1074.137497" y1="966.175995" x2="1078.719482" y2="961.594009" style="stroke: red; stroke-width: 0.200000"/>
   <line x1="1077.238464" y1="961.650848" x2="1074.143219" y2="964.746094" style="stroke: red; stroke-width: 0.200000"/>
   <line x1="1074.353943" y1="963.111191" x2="1075.520782" y2="961.944427" style="stroke: red; stroke-width: 0.200000"/>
   <line x1="1082.713547" y1="960.448227" x2="1084.337234" y2="958.824615" style="stroke: red; stroke-width: 0.200000"/>
   <line x1="1082.913055" y1="958.824615" x2="1082.713547" y2="959.024124" style="stroke: red; stroke-width: 0.200000"/>
   <line x1="1108.953094" y1="926.834641" x2="1086.766968" y2="949.020767" style="stroke: red; stroke-width: 0.200000"/>
   <line x1="1088.183899" y1="949.020767" x2="1108.908081" y2="928.296585" style="stroke: red; stroke-width: 0.200000"/>
   <line x1="1108.863068" y1="929.758530" x2="1089.600754" y2="949.020767" style="stroke: red; stroke-width: 0.200000"/>
   <line x1="1091.017685" y1="949.020767" x2="1108.817978" y2="931.220474" style="stroke: red; stroke-width: 0.200000"/>
   <line x1="1108.772964" y1="932.682419" x2="1092.434616" y2="949.020767" style="stroke: red; stroke-width: 0.200000"/>
   <line x1="1093.851471" y1="949.020767" x2="1108.719864" y2="934.152374" style="stroke: red; stroke-width: 0.200000"/>
   <line x1="1108.476334" y1="935.812836" x2="1095.268402" y2="949.020767" style="stroke: red; stroke-width: 0.200000"/>
   <line x1="1096.685257" y1="949.020767" x2="1108.220444" y2="937.485657" style="stroke: red; stroke-width: 0.200000"/>
   <line x1="1107.689514" y1="939.433517" x2="1098.102188" y2="949.020767" style="stroke: red; stroke-width: 0.200000"/>
   <line x1="1099.519119" y1="949.020767" x2="1106.864624" y2="941.675262" style="stroke: red; stroke-width: 0.200000"/>
   <line x1="1105.218735" y1="944.738007" x2="1100.935974" y2="949.020767" style="stroke: red; stroke-width: 0.200000"/>
   <line x1="1102.352905" y1="949.020767" x2="1102.357254" y2="949.016418" style="stroke: red; stroke-width: 0.200000"/>
   <line x1="1085.594254" y1="948.776627" x2="1108.998184" y2="925.372696" style="stroke: red; stroke-width: 0.200000"/>
   <line x1="1109.043198" y1="923.910751" x2="1085.594254" y2="947.359695" style="stroke: red; stroke-width: 0.200000"/>
   <line x1="1085.594254" y1="945.942841" x2="1109.027405" y2="922.509689" style="stroke: red; stroke-width: 0.200000"/>
   <line x1="1109.007492" y1="921.112671" x2="1085.594254" y2="944.525909" style="stroke: red; stroke-width: 0.200000"/>
   <line x1="1085.594254" y1="943.108978" x2="1108.949814" y2="919.753418" style="stroke: red; stroke-width: 0.200000"/>
   <line x1="1108.917084" y1="918.369293" x2="1085.594254" y2="941.692123" style="stroke: red; stroke-width: 0.200000"/>
   <line x1="1085.594254" y1="940.275192" x2="1108.858032" y2="917.011490" style="stroke: red; stroke-width: 0.200000"/>
   <line x1="1108.778076" y1="915.674515" x2="1085.594254" y2="938.858337" style="stroke: red; stroke-width: 0.200000"/>
   <line x1="1085.594254" y1="937.441406" x2="1108.266373" y2="914.769287" style="stroke: red; stroke-width: 0.200000"/>
   <line x1="1106.849518" y1="914.769287" x2="1085.594254" y2="936.024475" style="stroke: red; stroke-width: 0.200000"/>
   <line x1="1085.594254" y1="934.607620" x2="1105.432587" y2="914.769287" style="stroke: red; stroke-width: 0.200000"/>
   <line x1="1104.015732" y1="914.769287" x2="1085.594254" y2="933.190689" style="stroke: red; stroke-width: 0.200000"/>
   <line x1="1085.594254" y1="931.773834" x2="1102.598801" y2="914.769287" style="stroke: red; stroke-width: 0.200000"/>
   <line x1="1101.181870" y1="914.769287" x2="1085.594254" y2="930.356903" style="stroke: red; stroke-width: 0.200000"/>
   <line x1="1085.594254" y1="928.939972" x2="1099.765015" y2="914.769287" style="stroke: red; stroke-width: 0.200000"/>
   <line x1="1098.348083" y1="914.769287" x2="1085.594254" y2="927.523117" style="stroke: red; stroke-width: 0.200000"/>
   <line x1="1085.594254" y1="926.106186" x2="1096.931229" y2="914.769287" style="stroke: red; stroke-width: 0.200000"/>
   <line x1="1095.514297" y1="914.769287" x2="1085.594254" y2="924.689255" style="stroke: red; stroke-width: 0.200000"/>
   <line x1="1085.594254" y1="923.272400" x2="1094.097366" y2="914.769287" style="stroke: red; stroke-width: 0.200000"/>
   <line x1="1092.680511" y1="914.769287" x2="1085.594254" y2="921.855469" style="stroke: red; stroke-width: 0.200000"/>
   <line x1="1085.594254" y1="920.438614" x2="1091.263580" y2="914.769287" style="stroke: red; stroke-width: 0.200000"/>
   <line x1="1089.846725" y1="914.769287" x2="1085.594254" y2="919.021683" style="stroke: red; stroke-width: 0.200000"/>
   <line x1="1085.594254" y1="917.604752" x2="1088.429794" y2="914.769287" style="stroke: red; stroke-width: 0.200000"/>
   <line x1="1087.012863" y1="914.769287" x2="1085.594254" y2="916.187897" style="stroke: red; stroke-width: 0.200000"/>
   <line x1="1085.594254" y1="914.770966" x2="1085.596008" y2="914.769287" style="stroke: red; stroke-width: 0.200000"/>
   <line x1="1085.765762" y1="914.769058" x2="1105.316772" y2="895.218048" style="stroke: red; stroke-width: 0.200000"/>
   <line x1="1105.624924" y1="896.344681" x2="1087.200470" y2="914.769058" style="stroke: red; stroke-width: 0.200000"/>
   <line x1="1088.635178" y1="914.769058" x2="1105.932999" y2="897.471237" style="stroke: red; stroke-width: 0.200000"/>
   <line x1="1106.241074" y1="898.597794" x2="1090.069885" y2="914.769058" style="stroke: red; stroke-width: 0.200000"/>
   <line x1="1091.504593" y1="914.769058" x2="1106.547623" y2="899.726028" style="stroke: red; stroke-width: 0.200000"/>
   <line x1="1106.830597" y1="900.877686" x2="1092.939224" y2="914.769058" style="stroke: red; stroke-width: 0.200000"/>
   <line x1="1094.373932" y1="914.769058" x2="1107.061234" y2="902.081833" style="stroke: red; stroke-width: 0.200000"/>
   <line x1="1107.291794" y1="903.285904" x2="1095.808640" y2="914.769058" style="stroke: red; stroke-width: 0.200000"/>
   <line x1="1097.243347" y1="914.769058" x2="1107.522430" y2="904.489975" style="stroke: red; stroke-width: 0.200000"/>
   <line x1="1107.749405" y1="905.697708" x2="1098.678055" y2="914.769058" style="stroke: red; stroke-width: 0.200000"/>
   <line x1="1100.112686" y1="914.769058" x2="1107.941437" y2="906.940308" style="stroke: red; stroke-width: 0.200000"/>
   <line x1="1108.095627" y1="908.220825" x2="1101.547394" y2="914.769058" style="stroke: red; stroke-width: 0.200000"/>
   <line x1="1102.982101" y1="914.769058" x2="1108.249741" y2="909.501419" style="stroke: red; stroke-width: 0.200000"/>
   <line x1="1108.403244" y1="910.782623" x2="1104.416809" y2="914.769058" style="stroke: red; stroke-width: 0.200000"/>
   <line x1="1105.851440" y1="914.769058" x2="1108.550873" y2="912.069626" style="stroke: red; stroke-width: 0.200000"/>
   <line x1="1108.638916" y1="913.416290" x2="1107.286148" y2="914.769058" style="stroke: red; stroke-width: 0.200000"/>
   <line x1="1108.720856" y1="914.769058" x2="1108.722153" y2="914.767761" style="stroke: red; stroke-width: 0.200000"/>
   <line x1="1104.975128" y1="894.125061" x2="1085.594254" y2="913.505859" style="stroke: red; stroke-width: 0.200000"/>
   <line x1="1085.594254" y1="912.071228" x2="1104.605484" y2="893.059998" style="stroke: red; stroke-width: 0.200000"/>
   <line x1="1104.235764" y1="891.995010" x2="1085.594254" y2="910.636520" style="stroke: red; stroke-width: 0.200000"/>
   <line x1="1085.594254" y1="909.201813" x2="1103.866119" y2="890.929947" style="stroke: red; stroke-width: 0.200000"/>
   <line x1="1103.496475" y1="889.864960" x2="1085.594254" y2="907.767105" style="stroke: red; stroke-width: 0.200000"/>
   <line x1="1085.594254" y1="906.332397" x2="1103.076401" y2="888.850327" style="stroke: red; stroke-width: 0.200000"/>
   <line x1="1102.584000" y1="887.908020" x2="1085.594254" y2="904.897766" style="stroke: red; stroke-width: 0.200000"/>
   <line x1="1085.594254" y1="903.463058" x2="1102.035294" y2="887.022018" style="stroke: red; stroke-width: 0.200000"/>
   <line x1="1101.430435" y1="886.192169" x2="1085.594254" y2="902.028351" style="stroke: red; stroke-width: 0.200000"/>
   <line x1="1085.594254" y1="900.593643" x2="1100.746384" y2="885.441589" style="stroke: red; stroke-width: 0.200000"/>
   <line x1="1100.043716" y1="884.709549" x2="1085.594254" y2="899.158936" style="stroke: red; stroke-width: 0.200000"/>
   <line x1="1085.594254" y1="897.724304" x2="1099.269867" y2="884.048691" style="stroke: red; stroke-width: 0.200000"/>
   <line x1="1098.459625" y1="883.424225" x2="1085.594254" y2="896.289597" style="stroke: red; stroke-width: 0.200000"/>
   <line x1="1085.594254" y1="894.854889" x2="1097.588501" y2="882.860641" style="stroke: red; stroke-width: 0.200000"/>
   <line x1="1096.668472" y1="882.346039" x2="1085.594254" y2="893.420181" style="stroke: red; stroke-width: 0.200000"/>
   <line x1="1085.594254" y1="891.985474" x2="1095.691681" y2="881.888123" style="stroke: red; stroke-width: 0.200000"/>
   <line x1="1094.654694" y1="881.490402" x2="1085.594254" y2="890.550842" style="stroke: red; stroke-width: 0.200000"/>
   <line x1="1085.594254" y1="889.116135" x2="1093.551331" y2="881.159058" style="stroke: red; stroke-width: 0.200000"/>
   <line x1="1092.384644" y1="880.891037" x2="1085.594254" y2="887.681427" style="stroke: red; stroke-width: 0.200000"/>
   <line x1="1085.594254" y1="886.246719" x2="1091.108246" y2="880.732803" style="stroke: red; stroke-width: 0.200000"/>
   <line x1="1089.787216" y1="880.619125" x2="1085.594254" y2="884.812088" style="stroke: red; stroke-width: 0.200000"/>
   <line x1="1085.239410" y1="883.732224" x2="1085.312195" y2="883.659439" style="stroke: red; stroke-width: 0.200000"/>
   <line x1="1083.879166" y1="883.657761" x2="1083.809662" y2="883.727264" style="stroke: red; stroke-width: 0.200000"/>
   <line x1="1085.353622" y1="883.618011" x2="1088.311157" y2="880.660477" style="stroke: red; stroke-width: 0.200000"/>
   <line x1="1086.877441" y1="880.659485" x2="1083.920593" y2="883.616333" style="stroke: red; stroke-width: 0.200000"/>
   <line x1="1082.713547" y1="883.388672" x2="1085.506287" y2="880.596008" style="stroke: red; stroke-width: 0.200000"/>
   <line x1="1084.110870" y1="880.556717" x2="1082.713547" y2="881.953964" style="stroke: red; stroke-width: 0.200000"/>
   <line x1="1082.713547" y1="880.519333" x2="1082.715378" y2="880.517578" style="stroke: red; stroke-width: 0.200000"/>
   <line x1="914.667664" y1="1101.742477" x2="914.668808" y2="1101.741333" style="stroke: red; stroke-width: 0.200000"/>
   <line x1="914.668808" y1="1100.321579" x2="913.557968" y2="1101.432419" style="stroke: red; stroke-width: 0.200000"/>
   <line x1="912.481995" y1="1101.088638" x2="914.668732" y2="1098.901825" style="stroke: red; stroke-width: 0.200000"/>
   <line x1="914.668808" y1="1097.482147" x2="911.408768" y2="1100.742111" style="stroke: red; stroke-width: 0.200000"/>
   <line x1="910.335541" y1="1100.395584" x2="914.273605" y2="1096.457596" style="stroke: red; stroke-width: 0.200000"/>
   <line x1="912.853851" y1="1096.457596" x2="909.331589" y2="1099.979858" style="stroke: red; stroke-width: 0.200000"/>
   <line x1="908.382874" y1="1099.508896" x2="912.409439" y2="1095.482254" style="stroke: red; stroke-width: 0.200000"/>
   <line x1="912.409439" y1="1094.062576" x2="907.435989" y2="1099.036026" style="stroke: red; stroke-width: 0.200000"/>
   <line x1="906.489105" y1="1098.563156" x2="912.409439" y2="1092.642822" style="stroke: red; stroke-width: 0.200000"/>
   <line x1="912.409439" y1="1091.223068" x2="905.608673" y2="1098.023834" style="stroke: red; stroke-width: 0.200000"/>
   <line x1="904.775543" y1="1097.437210" x2="912.409439" y2="1089.803391" style="stroke: red; stroke-width: 0.200000"/>
   <line x1="912.409439" y1="1088.383636" x2="903.942947" y2="1096.850128" style="stroke: red; stroke-width: 0.200000"/>
   <line x1="913.076096" y1="1096.235275" x2="912.981491" y2="1096.329956" style="stroke: red; stroke-width: 0.200000"/>
   <line x1="903.110275" y1="1096.263046" x2="912.409439" y2="1086.963882" style="stroke: red; stroke-width: 0.200000"/>
   <line x1="912.409439" y1="1085.544205" x2="902.339935" y2="1095.613708" style="stroke: red; stroke-width: 0.200000"/>
   <line x1="901.616058" y1="1094.917755" x2="912.409439" y2="1084.124451" style="stroke: red; stroke-width: 0.200000"/>
   <line x1="912.409439" y1="1082.704697" x2="900.892334" y2="1094.221802" style="stroke: red; stroke-width: 0.200000"/>
   <line x1="900.168533" y1="1093.525848" x2="912.409439" y2="1081.285019" style="stroke: red; stroke-width: 0.200000"/>
   <line x1="912.409439" y1="1079.865265" x2="899.460449" y2="1092.814178" style="stroke: red; stroke-width: 0.200000"/>
   <line x1="898.848953" y1="1092.005997" x2="912.409439" y2="1078.445511" style="stroke: red; stroke-width: 0.200000"/>
   <line x1="912.409439" y1="1077.025833" x2="898.243790" y2="1091.191406" style="stroke: red; stroke-width: 0.200000"/>
   <line x1="897.638626" y1="1090.376816" x2="912.409439" y2="1075.606079" style="stroke: red; stroke-width: 0.200000"/>
   <line x1="912.409439" y1="1074.186325" x2="897.033539" y2="1089.562302" style="stroke: red; stroke-width: 0.200000"/>
   <line x1="896.535110" y1="1088.640900" x2="912.409439" y2="1072.766647" style="stroke: red; stroke-width: 0.200000"/>
   <line x1="912.409439" y1="1071.346893" x2="896.024551" y2="1087.731781" style="stroke: red; stroke-width: 0.200000"/>
   <line x1="895.527725" y1="1086.808929" x2="912.409439" y2="1069.927139" style="stroke: red; stroke-width: 0.200000"/>
   <line x1="912.409439" y1="1068.507462" x2="895.073090" y2="1085.843811" style="stroke: red; stroke-width: 0.200000"/>
   <line x1="894.710159" y1="1084.786987" x2="911.170502" y2="1068.326645" style="stroke: red; stroke-width: 0.200000"/>
   <line x1="909.750748" y1="1068.326645" x2="894.357910" y2="1083.719482" style="stroke: red; stroke-width: 0.200000"/>
   <line x1="894.003143" y1="1082.654495" x2="908.330994" y2="1068.326645" style="stroke: red; stroke-width: 0.200000"/>
   <line x1="906.911316" y1="1068.326645" x2="893.678894" y2="1081.558990" style="stroke: red; stroke-width: 0.200000"/>
   <line x1="893.487854" y1="1080.330353" x2="905.491562" y2="1068.326645" style="stroke: red; stroke-width: 0.200000"/>
   <line x1="904.071808" y1="1068.326645" x2="893.294449" y2="1079.104004" style="stroke: red; stroke-width: 0.200000"/>
   <line x1="893.100967" y1="1077.877808" x2="902.652130" y2="1068.326645" style="stroke: red; stroke-width: 0.200000"/>
   <line x1="901.232376" y1="1068.326645" x2="892.984543" y2="1076.574478" style="stroke: red; stroke-width: 0.200000"/>
   <line x1="892.901764" y1="1075.237503" x2="899.812622" y2="1068.326645" style="stroke: red; stroke-width: 0.200000"/>
   <line x1="898.392944" y1="1068.326645" x2="892.861938" y2="1073.857574" style="stroke: red; stroke-width: 0.200000"/>
   <line x1="892.824554" y1="1072.475281" x2="896.973190" y2="1068.326645" style="stroke: red; stroke-width: 0.200000"/>
   <line x1="895.553436" y1="1068.326645" x2="892.787247" y2="1071.092911" style="stroke: red; stroke-width: 0.200000"/>
   <line x1="892.749863" y1="1069.710541" x2="894.133759" y2="1068.326645" style="stroke: red; stroke-width: 0.200000"/>
   <line x1="892.714005" y1="1068.326645" x2="892.712479" y2="1068.328171" style="stroke: red; stroke-width: 0.200000"/>
   <line x1="912.409439" y1="1049.347534" x2="893.430481" y2="1068.326416" style="stroke: red; stroke-width: 0.200000"/>
   <line x1="894.890289" y1="1068.326416" x2="912.409439" y2="1050.807343" style="stroke: red; stroke-width: 0.200000"/>
   <line x1="912.409439" y1="1052.267151" x2="896.350098" y2="1068.326416" style="stroke: red; stroke-width: 0.200000"/>
   <line x1="897.809906" y1="1068.326416" x2="912.409439" y2="1053.726959" style="stroke: red; stroke-width: 0.200000"/>
   <line x1="912.409439" y1="1055.186768" x2="899.269714" y2="1068.326416" style="stroke: red; stroke-width: 0.200000"/>
   <line x1="900.729523" y1="1068.326416" x2="912.409439" y2="1056.646576" style="stroke: red; stroke-width: 0.200000"/>
   <line x1="912.409439" y1="1058.106384" x2="902.189331" y2="1068.326416" style="stroke: red; stroke-width: 0.200000"/>
   <line x1="912.409439" y1="1066.865234" x2="910.948181" y2="1068.326416" style="stroke: red; stroke-width: 0.200000"/>
   <line x1="912.409439" y1="1061.026001" x2="905.108948" y2="1068.326416" style="stroke: red; stroke-width: 0.200000"/>
   <line x1="912.407990" y1="1068.326416" x2="912.409439" y2="1068.325043" style="stroke: red; stroke-width: 0.200000"/>
   <line x1="909.488373" y1="1068.326416" x2="912.409439" y2="1065.405426" style="stroke: red; stroke-width: 0.200000"/>
   <line x1="906.568756" y1="1068.326416" x2="912.409439" y2="1062.485809" style="stroke: red; stroke-width: 0.200000"/>
   <line x1="903.649139" y1="1068.326416" x2="912.409439" y2="1059.566193" style="stroke: red; stroke-width: 0.200000"/>
   <line x1="912.409439" y1="1063.945618" x2="908.028564" y2="1068.326416" style="stroke: red; stroke-width: 0.200000"/>
   <line x1="892.692947" y1="1067.604218" x2="912.409439" y2="1047.887726" style="stroke: red; stroke-width: 0.200000"/>
   <line x1="912.409439" y1="1046.427917" x2="892.652283" y2="1066.185074" style="stroke: red; stroke-width: 0.200000"/>
   <line x1="892.657928" y1="1064.719543" x2="912.409439" y2="1044.968109" style="stroke: red; stroke-width: 0.200000"/>
   <line x1="912.409439" y1="1043.508301" x2="892.728500" y2="1063.189240" style="stroke: red; stroke-width: 0.200000"/>
   <line x1="892.796936" y1="1061.660995" x2="912.409439" y2="1042.048492" style="stroke: red; stroke-width: 0.200000"/>
   <line x1="912.409439" y1="1040.588684" x2="892.900696" y2="1060.097427" style="stroke: red; stroke-width: 0.200000"/>
   <line x1="893.196640" y1="1058.341675" x2="914.668808" y2="1036.869507" style="stroke: red; stroke-width: 0.200000"/>
   <line x1="914.668808" y1="1035.409698" x2="893.582764" y2="1056.495743" style="stroke: red; stroke-width: 0.200000"/>
   <line x1="894.141235" y1="1054.477463" x2="913.709335" y2="1034.909363" style="stroke: red; stroke-width: 0.200000"/>
   <line x1="912.249527" y1="1034.909363" x2="894.963760" y2="1052.195129" style="stroke: red; stroke-width: 0.200000"/>
   <line x1="896.001740" y1="1049.697342" x2="910.789719" y2="1034.909363" style="stroke: red; stroke-width: 0.200000"/>
   <line x1="909.329910" y1="1034.909363" x2="897.164841" y2="1047.074432" style="stroke: red; stroke-width: 0.200000"/>
   <line x1="898.271561" y1="1044.507904" x2="907.870102" y2="1034.909363" style="stroke: red; stroke-width: 0.200000"/>
   <line x1="906.410294" y1="1034.909363" x2="899.361801" y2="1041.957855" style="stroke: red; stroke-width: 0.200000"/>
   <line x1="900.298309" y1="1039.561539" x2="904.950485" y2="1034.909363" style="stroke: red; stroke-width: 0.200000"/>
   <line x1="903.490677" y1="1034.909363" x2="901.179581" y2="1037.220459" style="stroke: red; stroke-width: 0.200000"/>
   <line x1="902.028275" y1="1034.911957" x2="902.030869" y2="1034.909363" style="stroke: red; stroke-width: 0.200000"/>
   <line x1="913.234406" y1="1039.763718" x2="914.668808" y2="1038.329315" style="stroke: red; stroke-width: 0.200000"/>
   <line x1="903.196487" y1="1034.909210" x2="914.668808" y2="1023.436890" style="stroke: red; stroke-width: 0.200000"/>
   <line x1="914.668808" y1="1024.870758" x2="904.630356" y2="1034.909210" style="stroke: red; stroke-width: 0.200000"/>
   <line x1="906.064224" y1="1034.909210" x2="914.668808" y2="1026.304626" style="stroke: red; stroke-width: 0.200000"/>
   <line x1="914.668808" y1="1027.738495" x2="907.498093" y2="1034.909210" style="stroke: red; stroke-width: 0.200000"/>
   <line x1="908.931961" y1="1034.909210" x2="914.668808" y2="1029.172363" style="stroke: red; stroke-width: 0.200000"/>
   <line x1="914.668808" y1="1030.606232" x2="910.365753" y2="1034.909210" style="stroke: red; stroke-width: 0.200000"/>
   <line x1="911.799622" y1="1034.909210" x2="914.668808" y2="1032.040024" style="stroke: red; stroke-width: 0.200000"/>
   <line x1="914.668808" y1="1033.473892" x2="913.233490" y2="1034.909210" style="stroke: red; stroke-width: 0.200000"/>
   <line x1="914.667358" y1="1034.909210" x2="914.668808" y2="1034.907761" style="stroke: red; stroke-width: 0.200000"/>
   <line x1="914.668808" y1="1022.003098" x2="902.175217" y2="1034.496613" style="stroke: red; stroke-width: 0.200000"/>
   <line x1="902.889709" y1="1032.348251" x2="914.668808" y2="1020.569229" style="stroke: red; stroke-width: 0.200000"/>
   <line x1="914.668808" y1="1019.135361" x2="903.534241" y2="1030.269928" style="stroke: red; stroke-width: 0.200000"/>
   <line x1="903.948517" y1="1028.421707" x2="914.668732" y2="1017.701492" style="stroke: red; stroke-width: 0.200000"/>
   <line x1="914.668732" y1="1016.267624" x2="904.344177" y2="1026.592178" style="stroke: red; stroke-width: 0.200000"/>
   <line x1="904.734497" y1="1024.768066" x2="914.668732" y2="1014.833755" style="stroke: red; stroke-width: 0.200000"/>
   <line x1="914.668732" y1="1013.399963" x2="904.958954" y2="1023.109741" style="stroke: red; stroke-width: 0.200000"/>
   <line x1="905.158920" y1="1021.475906" x2="914.668732" y2="1011.966095" style="stroke: red; stroke-width: 0.200000"/>
   <line x1="914.668732" y1="1010.532227" x2="905.355148" y2="1019.845810" style="stroke: red; stroke-width: 0.200000"/>
   <line x1="905.483780" y1="1018.283386" x2="914.668732" y2="1009.098358" style="stroke: red; stroke-width: 0.200000"/>
   <line x1="914.668732" y1="1007.664490" x2="905.551147" y2="1016.782074" style="stroke: red; stroke-width: 0.200000"/>
   <line x1="905.611343" y1="1015.288010" x2="914.668732" y2="1006.230621" style="stroke: red; stroke-width: 0.200000"/>
   <line x1="914.668732" y1="1004.796753" x2="905.671539" y2="1013.794022" style="stroke: red; stroke-width: 0.200000"/>
   <line x1="905.621872" y1="1012.409821" x2="914.668732" y2="1003.362961" style="stroke: red; stroke-width: 0.200000"/>
   <line x1="914.668732" y1="1001.929092" x2="905.564194" y2="1011.033630" style="stroke: red; stroke-width: 0.200000"/>
   <line x1="905.506516" y1="1009.657440" x2="913.671875" y2="1001.492081" style="stroke: red; stroke-width: 0.200000"/>
   <line x1="912.238007" y1="1001.492081" x2="905.448914" y2="1008.281250" style="stroke: red; stroke-width: 0.200000"/>
   <line x1="905.391235" y1="1006.905060" x2="910.804138" y2="1001.492081" style="stroke: red; stroke-width: 0.200000"/>
   <line x1="909.370270" y1="1001.492081" x2="905.333557" y2="1005.528793" style="stroke: red; stroke-width: 0.200000"/>
   <line x1="905.275955" y1="1004.152603" x2="907.936478" y2="1001.492081" style="stroke: red; stroke-width: 0.200000"/>
   <line x1="906.502609" y1="1001.492081" x2="905.228577" y2="1002.766113" style="stroke: red; stroke-width: 0.200000"/>
   <line x1="905.067444" y1="1001.493378" x2="905.068741" y2="1001.492081" style="stroke: red; stroke-width: 0.200000"/>
   <line x1="906.056595" y1="1001.491928" x2="914.668732" y2="992.879715" style="stroke: red; stroke-width: 0.200000"/>
   <line x1="914.668732" y1="994.314880" x2="907.491684" y2="1001.491928" style="stroke: red; stroke-width: 0.200000"/>
   <line x1="908.926849" y1="1001.491928" x2="914.668732" y2="995.749969" style="stroke: red; stroke-width: 0.200000"/>
   <line x1="914.668732" y1="997.185135" x2="910.361938" y2="1001.491928" style="stroke: red; stroke-width: 0.200000"/>
   <line x1="911.797104" y1="1001.491928" x2="914.668732" y2="998.620224" style="stroke: red; stroke-width: 0.200000"/>
   <line x1="914.668732" y1="1000.055389" x2="913.232193" y2="1001.491928" style="stroke: red; stroke-width: 0.200000"/>
   <line x1="914.667358" y1="1001.491928" x2="914.668732" y2="1001.490479" style="stroke: red; stroke-width: 0.200000"/>
   <line x1="914.668732" y1="991.444626" x2="905.017166" y2="1001.096191" style="stroke: red; stroke-width: 0.200000"/>
   <line x1="904.855957" y1="999.822235" x2="914.668732" y2="990.009460" style="stroke: red; stroke-width: 0.200000"/>
   <line x1="914.668732" y1="988.574295" x2="904.694748" y2="998.548355" style="stroke: red; stroke-width: 0.200000"/>
   <line x1="904.533463" y1="997.274475" x2="914.668732" y2="987.139206" style="stroke: red; stroke-width: 0.200000"/>
   <line x1="914.668732" y1="985.704041" x2="904.372253" y2="996.000595" style="stroke: red; stroke-width: 0.200000"/>
   <line x1="904.211044" y1="994.726639" x2="914.668732" y2="984.268951" style="stroke: red; stroke-width: 0.200000"/>
   <line x1="914.668732" y1="982.833786" x2="904.049835" y2="993.452759" style="stroke: red; stroke-width: 0.200000"/>
   <line x1="903.892059" y1="992.175446" x2="914.668732" y2="981.398697" style="stroke: red; stroke-width: 0.200000"/>
   <line x1="914.668732" y1="979.963531" x2="903.668289" y2="990.964050" style="stroke: red; stroke-width: 0.200000"/>
   <line x1="903.428879" y1="989.768295" x2="914.668732" y2="978.528442" style="stroke: red; stroke-width: 0.200000"/>
   <line x1="914.668732" y1="977.093277" x2="903.189545" y2="988.572540" style="stroke: red; stroke-width: 0.200000"/>
   <line x1="902.950211" y1="987.376709" x2="914.668732" y2="975.658188" style="stroke: red; stroke-width: 0.200000"/>
   <line x1="914.668732" y1="974.223022" x2="902.692108" y2="986.199646" style="stroke: red; stroke-width: 0.200000"/>
   <line x1="902.393723" y1="985.062943" x2="914.668732" y2="972.787933" style="stroke: red; stroke-width: 0.200000"/>
   <line x1="914.668732" y1="971.352768" x2="902.095413" y2="983.926163" style="stroke: red; stroke-width: 0.200000"/>
   <line x1="901.797028" y1="982.789383" x2="914.668732" y2="969.917679" style="stroke: red; stroke-width: 0.200000"/>
   <line x1="914.668732" y1="968.482513" x2="901.498642" y2="981.652603" style="stroke: red; stroke-width: 0.200000"/>
   <line x1="901.162872" y1="980.553284" x2="913.641281" y2="968.074875" style="stroke: red; stroke-width: 0.200000"/>
   <line x1="912.206192" y1="968.074875" x2="900.820313" y2="979.460678" style="stroke: red; stroke-width: 0.200000"/>
   <line x1="900.477829" y1="978.368073" x2="910.771027" y2="968.074875" style="stroke: red; stroke-width: 0.200000"/>
   <line x1="909.335938" y1="968.074875" x2="900.135345" y2="977.275467" style="stroke: red; stroke-width: 0.200000"/>
   <line x1="899.788513" y1="976.187134" x2="907.900772" y2="968.074875" style="stroke: red; stroke-width: 0.200000"/>
   <line x1="906.465683" y1="968.074875" x2="899.435730" y2="975.104752" style="stroke: red; stroke-width: 0.200000"/>
   <line x1="899.097061" y1="974.008331" x2="905.030518" y2="968.074875" style="stroke: red; stroke-width: 0.200000"/>
   <line x1="903.595428" y1="968.074875" x2="898.801041" y2="972.869186" style="stroke: red; stroke-width: 0.200000"/>
   <line x1="898.527527" y1="971.707611" x2="902.160263" y2="968.074875" style="stroke: red; stroke-width: 0.200000"/>
   <line x1="900.725174" y1="968.074875" x2="898.255005" y2="970.544968" style="stroke: red; stroke-width: 0.200000"/>
   <line x1="898.051376" y1="969.313507" x2="899.290009" y2="968.074875" style="stroke: red; stroke-width: 0.200000"/>
   <line x1="897.854843" y1="968.074875" x2="897.853317" y2="968.076401" style="stroke: red; stroke-width: 0.200000"/>
   <line x1="912.409439" y1="954.420319" x2="898.755035" y2="968.074646" style="stroke: red; stroke-width: 0.200000"/>
   <line x1="900.201645" y1="968.074646" x2="912.409439" y2="955.866852" style="stroke: red; stroke-width: 0.200000"/>
   <line x1="912.409439" y1="957.313461" x2="901.648178" y2="968.074646" style="stroke: red; stroke-width: 0.200000"/>
   <line x1="903.094788" y1="968.074646" x2="912.409439" y2="958.759995" style="stroke: red; stroke-width: 0.200000"/>
   <line x1="913.791428" y1="958.824539" x2="904.541397" y2="968.074646" style="stroke: red; stroke-width: 0.200000"/>
   <line x1="905.987930" y1="968.074646" x2="914.668732" y2="959.393845" style="stroke: red; stroke-width: 0.200000"/>
   <line x1="914.668732" y1="960.840378" x2="907.434464" y2="968.074646" style="stroke: red; stroke-width: 0.200000"/>
   <line x1="908.881073" y1="968.074646" x2="914.668732" y2="962.286987" style="stroke: red; stroke-width: 0.200000"/>
   <line x1="914.668732" y1="963.733521" x2="910.327606" y2="968.074646" style="stroke: red; stroke-width: 0.200000"/>
   <line x1="911.774216" y1="968.074646" x2="914.668732" y2="965.180130" style="stroke: red; stroke-width: 0.200000"/>
   <line x1="914.668732" y1="966.626663" x2="913.220749" y2="968.074646" style="stroke: red; stroke-width: 0.200000"/>
   <line x1="914.667358" y1="968.074646" x2="914.668732" y2="968.073196" style="stroke: red; stroke-width: 0.200000"/>
   <line x1="897.777405" y1="967.605743" x2="912.409439" y2="952.973709" style="stroke: red; stroke-width: 0.200000"/>
   <line x1="912.409439" y1="951.527176" x2="897.659912" y2="966.276703" style="stroke: red; stroke-width: 0.200000"/>
   <line x1="897.593689" y1="964.896317" x2="912.409439" y2="950.080566" style="stroke: red; stroke-width: 0.200000"/>
   <line x1="912.409439" y1="948.634033" x2="897.520523" y2="963.522949" style="stroke: red; stroke-width: 0.200000"/>
   <line x1="897.423859" y1="962.173004" x2="912.409439" y2="947.187424" style="stroke: red; stroke-width: 0.200000"/>
   <line x1="912.409439" y1="945.740891" x2="897.328262" y2="960.821991" style="stroke: red; stroke-width: 0.200000"/>
   <line x1="897.236710" y1="959.467010" x2="912.409439" y2="944.294281" style="stroke: red; stroke-width: 0.200000"/>
   <line x1="912.409439" y1="942.847748" x2="897.145157" y2="958.112030" style="stroke: red; stroke-width: 0.200000"/>
   <line x1="897.145538" y1="956.665039" x2="912.409439" y2="941.401138" style="stroke: red; stroke-width: 0.200000"/>
   <line x1="912.793427" y1="941.017227" x2="912.667847" y2="941.142731" style="stroke: red; stroke-width: 0.200000"/>
   <line x1="914.478912" y1="940.778275" x2="914.582596" y2="940.674591" style="stroke: red; stroke-width: 0.200000"/>
   <line x1="914.668808" y1="937.695236" x2="897.222443" y2="955.141525" style="stroke: red; stroke-width: 0.200000"/>
   <line x1="897.426605" y1="953.490829" x2="914.668808" y2="936.248703" style="stroke: red; stroke-width: 0.200000"/>
   <line x1="914.668732" y1="934.802094" x2="897.810364" y2="951.660461" style="stroke: red; stroke-width: 0.200000"/>
   <line x1="898.486252" y1="949.538040" x2="912.292709" y2="935.731583" style="stroke: red; stroke-width: 0.200000"/>
   <line x1="909.431915" y1="937.145767" x2="899.647217" y2="946.930542" style="stroke: red; stroke-width: 0.200000"/>
   <line x1="903.733292" y1="941.397858" x2="903.772278" y2="941.358871" style="stroke: red; stroke-width: 0.200000"/>
   <line x1="912.884674" y1="940.925903" x2="914.668808" y2="939.141769" style="stroke: red; stroke-width: 0.200000"/>
   <line x1="905.968552" y1="1098.303223" x2="905.968628" y2="1098.303146" style="stroke: red; stroke-width: 0.200000"/>
   <line x1="905.120239" y1="1097.707138" x2="905.104523" y2="1097.722855" style="stroke: red; stroke-width: 0.200000"/>
   <line x1="904.257431" y1="1097.125549" x2="904.273071" y2="1097.109909" style="stroke: red; stroke-width: 0.200000"/>
   <line x1="903.425903" y1="1096.512604" x2="903.410263" y2="1096.528244" style="stroke: red; stroke-width: 0.200000"/>
   <line x1="902.563095" y1="1095.931015" x2="902.578812" y2="1095.915298" style="stroke: red; stroke-width: 0.200000"/>
   <line x1="901.828232" y1="1095.221405" x2="901.780777" y2="1095.268860" style="stroke: red; stroke-width: 0.200000"/>
   <line x1="901.053696" y1="1094.551544" x2="901.091919" y2="1094.513397" style="stroke: red; stroke-width: 0.200000"/>
   <line x1="900.356445" y1="1093.804398" x2="900.326538" y2="1093.834305" style="stroke: red; stroke-width: 0.200000"/>
   <line x1="899.599457" y1="1093.116989" x2="899.629288" y2="1093.087082" style="stroke: red; stroke-width: 0.200000"/>
   <line x1="898.962631" y1="1092.309418" x2="898.907623" y2="1092.364349" style="stroke: red; stroke-width: 0.200000"/>
   <line x1="898.282928" y1="1091.544647" x2="898.346939" y2="1091.480637" style="stroke: red; stroke-width: 0.200000"/>
   <line x1="897.731247" y1="1090.651932" x2="897.667236" y2="1090.715866" style="stroke: red; stroke-width: 0.200000"/>
   <line x1="897.051544" y1="1089.887161" x2="897.115555" y2="1089.823151" style="stroke: red; stroke-width: 0.200000"/>
   <line x1="896.551819" y1="1088.942490" x2="896.458969" y2="1089.035339" style="stroke: red; stroke-width: 0.200000"/>
   <line x1="895.963058" y1="1088.086853" x2="896.055908" y2="1087.994003" style="stroke: red; stroke-width: 0.200000"/>
   <line x1="895.540085" y1="1087.065353" x2="895.467148" y2="1087.138290" style="stroke: red; stroke-width: 0.200000"/>
   <line x1="894.950256" y1="1086.210785" x2="895.049820" y2="1086.111298" style="stroke: red; stroke-width: 0.200000"/>
   <line x1="894.639053" y1="1085.077515" x2="894.513702" y2="1085.202942" style="stroke: red; stroke-width: 0.200000"/>
   <line x1="894.154663" y1="1084.117584" x2="894.280548" y2="1083.991623" style="stroke: red; stroke-width: 0.200000"/>
   <line x1="893.919601" y1="1082.908249" x2="893.793640" y2="1083.034134" style="stroke: red; stroke-width: 0.200000"/>
   <line x1="893.432617" y1="1081.950684" x2="893.558578" y2="1081.824799" style="stroke: red; stroke-width: 0.200000"/>
   <line x1="893.340912" y1="1080.597992" x2="893.177567" y2="1080.761337" style="stroke: red; stroke-width: 0.200000"/>
   <line x1="892.980728" y1="1079.513779" x2="893.144073" y2="1079.350433" style="stroke: red; stroke-width: 0.200000"/>
   <line x1="892.947235" y1="1078.102875" x2="892.783890" y2="1078.266220" style="stroke: red; stroke-width: 0.200000"/>
   <line x1="892.638016" y1="1076.967697" x2="892.805557" y2="1076.800156" style="stroke: red; stroke-width: 0.200000"/>
   <line x1="892.741089" y1="1075.420151" x2="892.578964" y2="1075.582275" style="stroke: red; stroke-width: 0.200000"/>
   <line x1="892.519531" y1="1074.197311" x2="892.690582" y2="1074.026184" style="stroke: red; stroke-width: 0.200000"/>
   <line x1="892.652588" y1="1072.619781" x2="892.481537" y2="1072.790909" style="stroke: red; stroke-width: 0.200000"/>
   <line x1="892.443542" y1="1071.384506" x2="892.614594" y2="1071.213379" style="stroke: red; stroke-width: 0.200000"/>
   <line x1="892.576599" y1="1069.806976" x2="892.405548" y2="1069.978104" style="stroke: red; stroke-width: 0.200000"/>
   <line x1="892.365341" y1="1068.573837" x2="892.537918" y2="1068.401184" style="stroke: red; stroke-width: 0.200000"/>
   <line x1="892.326660" y1="1067.168121" x2="892.325134" y2="1067.169647" style="stroke: red; stroke-width: 0.200000"/>
   <line x1="892.501221" y1="1067.167892" x2="892.502594" y2="1067.166519" style="stroke: red; stroke-width: 0.200000"/>
   <line x1="892.461014" y1="1065.714493" x2="892.288361" y2="1065.887146" style="stroke: red; stroke-width: 0.200000"/>
   <line x1="892.317505" y1="1064.364395" x2="892.500839" y2="1064.181061" style="stroke: red; stroke-width: 0.200000"/>
   <line x1="892.570648" y1="1062.617645" x2="892.372284" y2="1062.816010" style="stroke: red; stroke-width: 0.200000"/>
   <line x1="892.428970" y1="1061.265717" x2="892.627335" y2="1061.067352" style="stroke: red; stroke-width: 0.200000"/>
   <line x1="892.858124" y1="1059.342957" x2="892.653580" y2="1059.547501" style="stroke: red; stroke-width: 0.200000"/>
   <line x1="892.954788" y1="1057.752686" x2="893.159409" y2="1057.548065" style="stroke: red; stroke-width: 0.200000"/>
   <line x1="893.702316" y1="1055.511551" x2="893.489075" y2="1055.724792" style="stroke: red; stroke-width: 0.200000"/>
   <line x1="894.161453" y1="1053.558807" x2="894.383087" y2="1053.337173" style="stroke: red; stroke-width: 0.200000"/>
   <line x1="895.349197" y1="1050.877457" x2="895.106964" y2="1051.119614" style="stroke: red; stroke-width: 0.200000"/>
   <line x1="896.293488" y1="1048.439560" x2="896.509933" y2="1048.223038" style="stroke: red; stroke-width: 0.200000"/>
   <line x1="897.604828" y1="1045.634537" x2="897.408676" y2="1045.830688" style="stroke: red; stroke-width: 0.200000"/>
   <line x1="898.407898" y1="1043.337936" x2="898.712921" y2="1043.032913" style="stroke: red; stroke-width: 0.200000"/>
   <line x1="899.748306" y1="1040.503922" x2="899.435883" y2="1040.816345" style="stroke: red; stroke-width: 0.200000"/>
   <line x1="900.333557" y1="1038.425064" x2="900.648651" y2="1038.109970" style="stroke: red; stroke-width: 0.200000"/>
   <line x1="901.233673" y1="1036.031342" x2="901.231232" y2="1036.033783" style="stroke: red; stroke-width: 0.200000"/>
   <line x1="901.427612" y1="1036.031113" x2="901.429901" y2="1036.028824" style="stroke: red; stroke-width: 0.200000"/>
   <line x1="902.217712" y1="1033.780518" x2="901.887817" y2="1034.110489" style="stroke: red; stroke-width: 0.200000"/>
   <line x1="902.544250" y1="1031.993561" x2="902.874146" y2="1031.663666" style="stroke: red; stroke-width: 0.200000"/>
   <line x1="903.444214" y1="1029.633179" x2="903.139725" y2="1029.937668" style="stroke: red; stroke-width: 0.200000"/>
   <line x1="903.551865" y1="1028.065033" x2="903.856354" y2="1027.760544" style="stroke: red; stroke-width: 0.200000"/>
   <line x1="904.256516" y1="1025.899887" x2="903.956757" y2="1026.199646" style="stroke: red; stroke-width: 0.200000"/>
   <line x1="904.302139" y1="1024.393845" x2="904.583511" y2="1024.112473" style="stroke: red; stroke-width: 0.200000"/>
   <line x1="904.801712" y1="1022.433853" x2="904.520645" y2="1022.714920" style="stroke: red; stroke-width: 0.200000"/>
   <line x1="904.726791" y1="1021.048279" x2="905.001526" y2="1020.773544" style="stroke: red; stroke-width: 0.200000"/>
   <line x1="905.189743" y1="1019.124832" x2="904.926605" y2="1019.387970" style="stroke: red; stroke-width: 0.200000"/>
   <line x1="905.008774" y1="1017.845383" x2="905.271759" y2="1017.582321" style="stroke: red; stroke-width: 0.200000"/>
   <line x1="905.335159" y1="1016.058502" x2="905.079880" y2="1016.313782" style="stroke: red; stroke-width: 0.200000"/>
   <line x1="905.141220" y1="1014.792023" x2="905.396423" y2="1014.536743" style="stroke: red; stroke-width: 0.200000"/>
   <line x1="905.395660" y1="1013.077087" x2="905.151978" y2="1013.320770" style="stroke: red; stroke-width: 0.200000"/>
   <line x1="905.093307" y1="1011.919022" x2="905.336990" y2="1011.675339" style="stroke: red; stroke-width: 0.200000"/>
   <line x1="905.278244" y1="1010.273590" x2="905.034561" y2="1010.517273" style="stroke: red; stroke-width: 0.200000"/>
   <line x1="904.975815" y1="1009.115601" x2="905.219498" y2="1008.871918" style="stroke: red; stroke-width: 0.200000"/>
   <line x1="905.160828" y1="1007.470169" x2="904.917068" y2="1007.713852" style="stroke: red; stroke-width: 0.200000"/>
   <line x1="904.858398" y1="1006.312103" x2="905.102081" y2="1006.068420" style="stroke: red; stroke-width: 0.200000"/>
   <line x1="904.815521" y1="1004.894562" x2="904.813919" y2="1004.896164" style="stroke: red; stroke-width: 0.200000"/>
   <line x1="905.051804" y1="1004.894333" x2="905.053177" y2="1004.892960" style="stroke: red; stroke-width: 0.200000"/>
   <line x1="905.011978" y1="1003.483963" x2="904.779434" y2="1003.716507" style="stroke: red; stroke-width: 0.200000"/>
   <line x1="904.678116" y1="1002.367630" x2="904.899902" y2="1002.145767" style="stroke: red; stroke-width: 0.200000"/>
   <line x1="904.737015" y1="1000.858459" x2="904.515152" y2="1001.080322" style="stroke: red; stroke-width: 0.200000"/>
   <line x1="904.352264" y1="999.793015" x2="904.574127" y2="999.571228" style="stroke: red; stroke-width: 0.200000"/>
   <line x1="904.411163" y1="998.283920" x2="904.189301" y2="998.505783" style="stroke: red; stroke-width: 0.200000"/>
   <line x1="904.026413" y1="997.218475" x2="904.248276" y2="996.996689" style="stroke: red; stroke-width: 0.200000"/>
   <line x1="904.085312" y1="995.709381" x2="903.863449" y2="995.931244" style="stroke: red; stroke-width: 0.200000"/>
   <line x1="903.700562" y1="994.643936" x2="903.922424" y2="994.422073" style="stroke: red; stroke-width: 0.200000"/>
   <line x1="903.759460" y1="993.134766" x2="903.544922" y2="993.349304" style="stroke: red; stroke-width: 0.200000"/>
   <line x1="903.388824" y1="992.055206" x2="903.593597" y2="991.850510" style="stroke: red; stroke-width: 0.200000"/>
   <line x1="903.347702" y1="990.646133" x2="903.143005" y2="990.850906" style="stroke: red; stroke-width: 0.200000"/>
   <line x1="902.897110" y1="989.646606" x2="903.101807" y2="989.441833" style="stroke: red; stroke-width: 0.200000"/>
   <line x1="902.855911" y1="988.237534" x2="902.651215" y2="988.442230" style="stroke: red; stroke-width: 0.200000"/>
   <line x1="902.407303" y1="987.235947" x2="902.610092" y2="987.033157" style="stroke: red; stroke-width: 0.200000"/>
   <line x1="902.328644" y1="985.864410" x2="902.132187" y2="986.060867" style="stroke: red; stroke-width: 0.200000"/>
   <line x1="901.828995" y1="984.913864" x2="902.025452" y2="984.717407" style="stroke: red; stroke-width: 0.200000"/>
   <line x1="901.722183" y1="983.570404" x2="901.525726" y2="983.766861" style="stroke: red; stroke-width: 0.200000"/>
   <line x1="901.222534" y1="982.619934" x2="901.418991" y2="982.423401" style="stroke: red; stroke-width: 0.200000"/>
   <line x1="901.116867" y1="981.275330" x2="900.922928" y2="981.469345" style="stroke: red; stroke-width: 0.200000"/>
   <line x1="900.568237" y1="980.373764" x2="900.759811" y2="980.182190" style="stroke: red; stroke-width: 0.200000"/>
   <line x1="900.413666" y1="979.078140" x2="900.202103" y2="979.289703" style="stroke: red; stroke-width: 0.200000"/>
   <line x1="899.849396" y1="978.192215" x2="900.067596" y2="977.974014" style="stroke: red; stroke-width: 0.200000"/>
   <line x1="899.721451" y1="976.869965" x2="899.503326" y2="977.088089" style="stroke: red; stroke-width: 0.200000"/>
   <line x1="899.151306" y1="975.989914" x2="899.366074" y2="975.775070" style="stroke: red; stroke-width: 0.200000"/>
   <line x1="899.024048" y1="974.666977" x2="898.815613" y2="974.875336" style="stroke: red; stroke-width: 0.200000"/>
   <line x1="898.481750" y1="973.759003" x2="898.483047" y2="973.757782" style="stroke: red; stroke-width: 0.200000"/>
   <line x1="898.748703" y1="973.757553" x2="898.749847" y2="973.756485" style="stroke: red; stroke-width: 0.200000"/>
   <line x1="898.472290" y1="972.596283" x2="898.258362" y2="972.810211" style="stroke: red; stroke-width: 0.200000"/>
   <line x1="897.985382" y1="971.645508" x2="898.198853" y2="971.432037" style="stroke: red; stroke-width: 0.200000"/>
   <line x1="897.945099" y1="970.248108" x2="897.724762" y2="970.468445" style="stroke: red; stroke-width: 0.200000"/>
   <line x1="897.526398" y1="969.229126" x2="897.746735" y2="969.008713" style="stroke: red; stroke-width: 0.200000"/>
   <line x1="897.547226" y1="967.770538" x2="897.326355" y2="967.991409" style="stroke: red; stroke-width: 0.200000"/>
   <line x1="897.193298" y1="966.686783" x2="897.424774" y2="966.455307" style="stroke: red; stroke-width: 0.200000"/>
   <line x1="897.337723" y1="965.104599" x2="897.106247" y2="965.336151" style="stroke: red; stroke-width: 0.200000"/>
   <line x1="897.018509" y1="963.986130" x2="897.267685" y2="963.737030" style="stroke: red; stroke-width: 0.200000"/>
   <line x1="897.172623" y1="962.394333" x2="896.927567" y2="962.639465" style="stroke: red; stroke-width: 0.200000"/>
   <line x1="896.836548" y1="961.292725" x2="897.081680" y2="961.047592" style="stroke: red; stroke-width: 0.200000"/>
   <line x1="896.990662" y1="959.700928" x2="896.745529" y2="959.946060" style="stroke: red; stroke-width: 0.200000"/>
   <line x1="896.654510" y1="958.599319" x2="896.899643" y2="958.354187" style="stroke: red; stroke-width: 0.200000"/>
   <line x1="896.893768" y1="956.922379" x2="896.642303" y2="957.173843" style="stroke: red; stroke-width: 0.200000"/>
   <line x1="896.721268" y1="955.657196" x2="896.971359" y2="955.407104" style="stroke: red; stroke-width: 0.200000"/>
   <line x1="897.175522" y1="953.765259" x2="896.928406" y2="954.012375" style="stroke: red; stroke-width: 0.200000"/>
   <line x1="897.316589" y1="952.186432" x2="897.558746" y2="951.944275" style="stroke: red; stroke-width: 0.200000"/>
   <line x1="898.236771" y1="949.828568" x2="898.014526" y2="950.050812" style="stroke: red; stroke-width: 0.200000"/>
   <line x1="899.181061" y1="947.446594" x2="899.383774" y2="947.243881" style="stroke: red; stroke-width: 0.200000"/>
   <line x1="902.561646" y1="942.628250" x2="902.535706" y2="942.654266" style="stroke: red; stroke-width: 0.200000"/>
   <line x1="1084.211121" y1="1115.804367" x2="1084.078979" y2="1115.936508" style="stroke: green; stroke-width: 0.200000"/>
   <line x1="1085.557022" y1="1115.931091" x2="1085.558395" y2="1115.929718" style="stroke: green; stroke-width: 0.200000"/>
   <line x1="1082.731705" y1="1115.811234" x2="1082.733078" y2="1115.809784" style="stroke: green; stroke-width: 0.200000"/>
   <line x1="905.940170" y1="1098.256607" x2="905.940323" y2="1098.256454" style="stroke: green; stroke-width: 0.200000"/>
   <line x1="905.096588" y1="1097.663651" x2="905.080872" y2="1097.679291" style="stroke: green; stroke-width: 0.200000"/>
   <line x1="904.238358" y1="1097.085266" x2="904.253998" y2="1097.069626" style="stroke: green; stroke-width: 0.200000"/>
   <line x1="903.411484" y1="1096.475525" x2="903.395767" y2="1096.491241" style="stroke: green; stroke-width: 0.200000"/>
   <line x1="902.553253" y1="1095.897141" x2="902.593231" y2="1095.857162" style="stroke: green; stroke-width: 0.200000"/>
   <line x1="901.860657" y1="1095.153122" x2="901.809998" y2="1095.203781" style="stroke: green; stroke-width: 0.200000"/>
   <line x1="901.077652" y1="1094.499512" x2="901.128311" y2="1094.448853" style="stroke: green; stroke-width: 0.200000"/>
   <line x1="900.395966" y1="1093.744659" x2="900.346298" y2="1093.794250" style="stroke: green; stroke-width: 0.200000"/>
   <line x1="899.623108" y1="1093.080826" x2="899.663544" y2="1093.040390" style="stroke: green; stroke-width: 0.200000"/>
   <line x1="899.025955" y1="1092.241440" x2="898.960724" y2="1092.306671" style="stroke: green; stroke-width: 0.200000"/>
   <line x1="898.348389" y1="1091.482391" x2="898.412323" y2="1091.418457" style="stroke: green; stroke-width: 0.200000"/>
   <line x1="897.799988" y1="1090.594177" x2="897.736053" y2="1090.658188" style="stroke: green; stroke-width: 0.200000"/>
   <line x1="897.123718" y1="1089.833908" x2="897.187653" y2="1089.769897" style="stroke: green; stroke-width: 0.200000"/>
   <line x1="896.653900" y1="1088.867035" x2="896.561050" y2="1088.959961" style="stroke: green; stroke-width: 0.200000"/>
   <line x1="896.067810" y1="1088.016510" x2="896.142426" y2="1087.941895" style="stroke: green; stroke-width: 0.200000"/>
   <line x1="895.627289" y1="1087.020493" x2="895.555420" y2="1087.092361" style="stroke: green; stroke-width: 0.200000"/>
   <line x1="895.065918" y1="1086.145248" x2="895.167236" y2="1086.043930" style="stroke: green; stroke-width: 0.200000"/>
   <line x1="894.778900" y1="1084.995651" x2="894.653549" y2="1085.121002" style="stroke: green; stroke-width: 0.200000"/>
   <line x1="894.297104" y1="1084.040909" x2="894.422531" y2="1083.915482" style="stroke: green; stroke-width: 0.200000"/>
   <line x1="894.063950" y1="1082.837448" x2="893.938065" y2="1082.963333" style="stroke: green; stroke-width: 0.200000"/>
   <line x1="893.579025" y1="1081.885757" x2="893.709335" y2="1081.755447" style="stroke: green; stroke-width: 0.200000"/>
   <line x1="893.516083" y1="1080.512161" x2="893.353119" y2="1080.675049" style="stroke: green; stroke-width: 0.200000"/>
   <line x1="893.157349" y1="1079.434204" x2="893.320694" y2="1079.270935" style="stroke: green; stroke-width: 0.200000"/>
   <line x1="893.124847" y1="1078.030090" x2="892.961578" y2="1078.193359" style="stroke: green; stroke-width: 0.200000"/>
   <line x1="892.814026" y1="1076.904297" x2="892.996368" y2="1076.722031" style="stroke: green; stroke-width: 0.200000"/>
   <line x1="892.912445" y1="1075.369339" x2="892.750320" y2="1075.531464" style="stroke: green; stroke-width: 0.200000"/>
   <line x1="892.694092" y1="1074.151077" x2="892.865143" y2="1073.980026" style="stroke: green; stroke-width: 0.200000"/>
   <line x1="892.827377" y1="1072.581253" x2="892.656326" y2="1072.752304" style="stroke: green; stroke-width: 0.200000"/>
   <line x1="892.618484" y1="1071.353531" x2="892.789536" y2="1071.182404" style="stroke: green; stroke-width: 0.200000"/>
   <line x1="892.751770" y1="1069.783630" x2="892.580643" y2="1069.954681" style="stroke: green; stroke-width: 0.200000"/>
   <line x1="892.542496" y1="1068.556290" x2="892.713928" y2="1068.384857" style="stroke: green; stroke-width: 0.200000"/>
   <line x1="892.504196" y1="1067.157974" x2="892.502518" y2="1067.159653" style="stroke: green; stroke-width: 0.200000"/>
   <line x1="892.678604" y1="1067.157822" x2="892.679977" y2="1067.156448" style="stroke: green; stroke-width: 0.200000"/>
   <line x1="892.638474" y1="1065.707397" x2="892.465820" y2="1065.880051" style="stroke: green; stroke-width: 0.200000"/>
   <line x1="892.495728" y1="1064.359665" x2="892.673187" y2="1064.182129" style="stroke: green; stroke-width: 0.200000"/>
   <line x1="892.762375" y1="1062.602386" x2="892.564087" y2="1062.800751" style="stroke: green; stroke-width: 0.200000"/>
   <line x1="892.620621" y1="1061.253662" x2="892.818985" y2="1061.055298" style="stroke: green; stroke-width: 0.200000"/>
   <line x1="893.025589" y1="1059.358139" x2="892.821426" y2="1059.562302" style="stroke: green; stroke-width: 0.200000"/>
   <line x1="893.122025" y1="1057.771149" x2="893.326645" y2="1057.566528" style="stroke: green; stroke-width: 0.200000"/>
   <line x1="893.843307" y1="1055.559311" x2="893.630981" y2="1055.771713" style="stroke: green; stroke-width: 0.200000"/>
   <line x1="894.266510" y1="1053.645630" x2="894.488144" y2="1053.423996" style="stroke: green; stroke-width: 0.200000"/>
   <line x1="895.447998" y1="1050.973587" x2="895.211487" y2="1051.210098" style="stroke: green; stroke-width: 0.200000"/>
   <line x1="896.356277" y1="1048.574753" x2="896.598434" y2="1048.332596" style="stroke: green; stroke-width: 0.200000"/>
   <line x1="897.777710" y1="1045.662766" x2="897.470551" y2="1045.969925" style="stroke: green; stroke-width: 0.200000"/>
   <line x1="898.560638" y1="1043.389282" x2="898.890915" y2="1043.059082" style="stroke: green; stroke-width: 0.200000"/>
   <line x1="899.935303" y1="1040.524063" x2="899.623108" y2="1040.836334" style="stroke: green; stroke-width: 0.200000"/>
   <line x1="900.522461" y1="1038.446426" x2="900.837173" y2="1038.131638" style="stroke: green; stroke-width: 0.200000"/>
   <line x1="901.420593" y1="1036.057739" x2="901.418304" y2="1036.060028" style="stroke: green; stroke-width: 0.200000"/>
   <line x1="901.614609" y1="1036.057587" x2="901.616898" y2="1036.055298" style="stroke: green; stroke-width: 0.200000"/>
   <line x1="902.424240" y1="1033.792267" x2="902.116089" y2="1034.100342" style="stroke: green; stroke-width: 0.200000"/>
   <line x1="902.774048" y1="1031.986771" x2="903.104019" y2="1031.656799" style="stroke: green; stroke-width: 0.200000"/>
   <line x1="903.684540" y1="1029.620590" x2="903.380051" y2="1029.925156" style="stroke: green; stroke-width: 0.200000"/>
   <line x1="903.790817" y1="1028.058624" x2="904.095383" y2="1027.754135" style="stroke: green; stroke-width: 0.200000"/>
   <line x1="904.491730" y1="1025.902100" x2="904.192047" y2="1026.201782" style="stroke: green; stroke-width: 0.200000"/>
   <line x1="904.547348" y1="1024.390793" x2="904.828720" y2="1024.109421" style="stroke: green; stroke-width: 0.200000"/>
   <line x1="905.042801" y1="1022.439728" x2="904.765167" y2="1022.717361" style="stroke: green; stroke-width: 0.200000"/>
   <line x1="904.967194" y1="1021.059647" x2="905.242004" y2="1020.784836" style="stroke: green; stroke-width: 0.200000"/>
   <line x1="905.438461" y1="1019.132690" x2="905.166397" y2="1019.404755" style="stroke: green; stroke-width: 0.200000"/>
   <line x1="905.257187" y1="1017.858276" x2="905.518265" y2="1017.597275" style="stroke: green; stroke-width: 0.200000"/>
   <line x1="905.579300" y1="1016.080551" x2="905.324097" y2="1016.335754" style="stroke: green; stroke-width: 0.200000"/>
   <line x1="905.385208" y1="1014.819031" x2="905.640411" y2="1014.563751" style="stroke: green; stroke-width: 0.200000"/>
   <line x1="905.650558" y1="1013.097916" x2="905.406876" y2="1013.341675" style="stroke: green; stroke-width: 0.200000"/>
   <line x1="905.348358" y1="1011.944504" x2="905.592041" y2="1011.700821" style="stroke: green; stroke-width: 0.200000"/>
   <line x1="905.533524" y1="1010.303650" x2="905.289841" y2="1010.547409" style="stroke: green; stroke-width: 0.200000"/>
   <line x1="905.231247" y1="1009.150238" x2="905.475006" y2="1008.906555" style="stroke: green; stroke-width: 0.200000"/>
   <line x1="905.416412" y1="1007.509384" x2="905.172729" y2="1007.753143" style="stroke: green; stroke-width: 0.200000"/>
   <line x1="905.114212" y1="1006.355972" x2="905.357895" y2="1006.112289" style="stroke: green; stroke-width: 0.200000"/>
   <line x1="905.056992" y1="1004.957504" x2="905.055695" y2="1004.958878" style="stroke: green; stroke-width: 0.200000"/>
   <line x1="905.308075" y1="1004.957352" x2="905.309448" y2="1004.955978" style="stroke: green; stroke-width: 0.200000"/>
   <line x1="905.253830" y1="1003.564453" x2="905.021210" y2="1003.797073" style="stroke: green; stroke-width: 0.200000"/>
   <line x1="904.936600" y1="1002.434540" x2="905.158386" y2="1002.212677" style="stroke: green; stroke-width: 0.200000"/>
   <line x1="904.995804" y1="1000.928116" x2="904.774017" y2="1001.149902" style="stroke: green; stroke-width: 0.200000"/>
   <line x1="904.611435" y1="999.865341" x2="904.833221" y2="999.643555" style="stroke: green; stroke-width: 0.200000"/>
   <line x1="904.670639" y1="998.358994" x2="904.448853" y2="998.580780" style="stroke: green; stroke-width: 0.200000"/>
   <line x1="904.286270" y1="997.296219" x2="904.508057" y2="997.074356" style="stroke: green; stroke-width: 0.200000"/>
   <line x1="904.345474" y1="995.789795" x2="904.123688" y2="996.011658" style="stroke: green; stroke-width: 0.200000"/>
   <line x1="903.961105" y1="994.727020" x2="904.182892" y2="994.505234" style="stroke: green; stroke-width: 0.200000"/>
   <line x1="904.020309" y1="993.220596" x2="903.798523" y2="993.442459" style="stroke: green; stroke-width: 0.200000"/>
   <line x1="903.644333" y1="992.149429" x2="903.862152" y2="991.931686" style="stroke: green; stroke-width: 0.200000"/>
   <line x1="903.620529" y1="990.726089" x2="903.407593" y2="990.939026" style="stroke: green; stroke-width: 0.200000"/>
   <line x1="903.162231" y1="989.737244" x2="903.379135" y2="989.520264" style="stroke: green; stroke-width: 0.200000"/>
   <line x1="903.137817" y1="988.314514" x2="902.916870" y2="988.535461" style="stroke: green; stroke-width: 0.200000"/>
   <line x1="902.671509" y1="987.333603" x2="902.896423" y2="987.108688" style="stroke: green; stroke-width: 0.200000"/>
   <line x1="902.622604" y1="985.935364" x2="902.405014" y2="986.152954" style="stroke: green; stroke-width: 0.200000"/>
   <line x1="902.102432" y1="985.008316" x2="902.321777" y2="984.789047" style="stroke: green; stroke-width: 0.200000"/>
   <line x1="902.020874" y1="983.642731" x2="901.799850" y2="983.863754" style="stroke: green; stroke-width: 0.200000"/>
   <line x1="901.497269" y1="982.719193" x2="901.720047" y2="982.496414" style="stroke: green; stroke-width: 0.200000"/>
   <line x1="901.419144" y1="981.350174" x2="901.194687" y2="981.574631" style="stroke: green; stroke-width: 0.200000"/>
   <line x1="900.850601" y1="980.471573" x2="901.068726" y2="980.253448" style="stroke: green; stroke-width: 0.200000"/>
   <line x1="900.723343" y1="979.151611" x2="900.505219" y2="979.369736" style="stroke: green; stroke-width: 0.200000"/>
   <line x1="900.159836" y1="978.267975" x2="900.377960" y2="978.049850" style="stroke: green; stroke-width: 0.200000"/>
   <line x1="900.032578" y1="976.948090" x2="899.814453" y2="977.166214" style="stroke: green; stroke-width: 0.200000"/>
   <line x1="899.462585" y1="976.070862" x2="899.679718" y2="975.853729" style="stroke: green; stroke-width: 0.200000"/>
   <line x1="899.324036" y1="974.762268" x2="899.115601" y2="974.970703" style="stroke: green; stroke-width: 0.200000"/>
   <line x1="898.780670" y1="973.858490" x2="898.781891" y2="973.857269" style="stroke: green; stroke-width: 0.200000"/>
   <line x1="899.049988" y1="973.857040" x2="899.051056" y2="973.855972" style="stroke: green; stroke-width: 0.200000"/>
   <line x1="898.759079" y1="972.691345" x2="898.545151" y2="972.905273" style="stroke: green; stroke-width: 0.200000"/>
   <line x1="898.267670" y1="971.726074" x2="898.481445" y2="971.512299" style="stroke: green; stroke-width: 0.200000"/>
   <line x1="898.213043" y1="970.324020" x2="897.992630" y2="970.544434" style="stroke: green; stroke-width: 0.200000"/>
   <line x1="897.791672" y1="969.288712" x2="898.012009" y2="969.068375" style="stroke: green; stroke-width: 0.200000"/>
   <line x1="897.810822" y1="967.812881" x2="897.589951" y2="968.033752" style="stroke: green; stroke-width: 0.200000"/>
   <line x1="897.442245" y1="966.724777" x2="897.673721" y2="966.493301" style="stroke: green; stroke-width: 0.200000"/>
   <line x1="897.602615" y1="965.107803" x2="897.354050" y2="965.356369" style="stroke: green; stroke-width: 0.200000"/>
   <line x1="897.284393" y1="963.969345" x2="897.534409" y2="963.719254" style="stroke: green; stroke-width: 0.200000"/>
   <line x1="897.437134" y1="962.359848" x2="897.187271" y2="962.609711" style="stroke: green; stroke-width: 0.200000"/>
   <line x1="897.095108" y1="961.245270" x2="897.340240" y2="961.000137" style="stroke: green; stroke-width: 0.200000"/>
   <line x1="897.248001" y1="959.635696" x2="897.002869" y2="959.880829" style="stroke: green; stroke-width: 0.200000"/>
   <line x1="896.910706" y1="958.516312" x2="897.155838" y2="958.271255" style="stroke: green; stroke-width: 0.200000"/>
   <line x1="897.144165" y1="956.826172" x2="896.892624" y2="957.077713" style="stroke: green; stroke-width: 0.200000"/>
   <line x1="896.963730" y1="955.549927" x2="897.213821" y2="955.299835" style="stroke: green; stroke-width: 0.200000"/>
   <line x1="897.404022" y1="953.652954" x2="897.156906" y2="953.900070" style="stroke: green; stroke-width: 0.200000"/>
   <line x1="897.530975" y1="952.069397" x2="897.773132" y2="951.827240" style="stroke: green; stroke-width: 0.200000"/>
   <line x1="898.406296" y1="949.737396" x2="898.183441" y2="949.960251" style="stroke: green; stroke-width: 0.200000"/>
   <line x1="899.327240" y1="947.359772" x2="899.532089" y2="947.154922" style="stroke: green; stroke-width: 0.200000"/>
   <line x1="902.464523" y1="942.765884" x2="902.437515" y2="942.792816" style="stroke: green; stroke-width: 0.200000"/>
   <line x1="912.622528" y1="940.976181" x2="912.620773" y2="940.977936" style="stroke: green; stroke-width: 0.200000"/>
   <line x1="914.561462" y1="940.678482" x2="914.563217" y2="940.676804" style="stroke: green; stroke-width: 0.200000"/>
   <line x1="1085.556946" y1="883.659592" x2="1085.558395" y2="883.658142" style="stroke: green; stroke-width: 0.200000"/>
   <line x1="1084.165726" y1="883.616714" x2="1084.124527" y2="883.657913" style="stroke: green; stroke-width: 0.200000"/>
   <line x1="1082.731705" y1="883.616714" x2="1082.733078" y2="883.615265" style="stroke: green; stroke-width: 0.200000"/>
</svg>
